<?xml version="1.0" encoding="UTF-8"?>
<svg enable-background="new 0 0 318.895 173.793" viewBox="-85 0 318.895 173.793" xmlns="http://www.w3.org/2000/svg">
 <path d="m137.759,5.539c-.047.573.215.836.789.789-.057,1.257-1.144,1.485-2.628,1.314-.704-1.305.058-2.508 1.839-2.103z" fill-rule="evenodd"/>
 <path d="m117.517,6.852c.254,1.308-.396,1.708-1.578,1.578 .19-.804-.454-.773-.263-1.578 .832-.36.879-.057 1.841,0z" fill-rule="evenodd"/>
 <path d="m129.872,9.218c-.984.392-.793.434-2.103.263-.627-2.316 2.408-2.298 2.103-.263z" fill-rule="evenodd"/>
 <path d="m152.218,10.008c.8.076 1.794-.042 1.84.789-.319.463-.491,1.054-1.84,1.051-.375-.351-.375-1.489 0-1.84z" fill-rule="evenodd"/>
 <path d="m113.047,10.796c-.209.491-.439.963-.526,1.578-1.19.139-1.716-.387-1.577-1.578 .763-.599 1.34-.6 2.103,0z" fill-rule="evenodd"/>
 <path d="m116.727,10.271h2.103c.07.946-.486,1.267-.525,2.103-1.685.371-2.11-1.02-1.578-2.103z" fill-rule="evenodd"/>
 <path d="m148.537,11.322c.39.137.664.389 1.052.526v1.315c-.351.375-1.489.375-1.84,0v-1.315c.385-.61.833.513.788-.526z" fill-rule="evenodd"/>
 <path d="m159.842,11.322c.521.518.167,1.501 0,2.103h-1.315c-.521-1.026-.252-2.416 1.315-2.103z" fill-rule="evenodd"/>
 <path d="m108.314,13.163c-1.318.921-2.419,1.514-2.629-1.052 1.219-.546 2.608-.741 2.629,1.052z" fill-rule="evenodd"/>
 <path d="m142.228,11.584c.923.128 1.574.531 1.578,1.578-1.106-.318-1.153.425-1.841.525 .146-.583-.501-.375-.525-.789-.279-.98.985-.415.788-1.314z" fill-rule="evenodd"/>
 <path d="m174.826,12.899c.115-.587 1.296-.106 1.842-.263 .144.469.135,1.092.524,1.314 .106.63-1.196-.146-.788.789-.654.041-.812-.413-1.313-.525-.146-.382.306-1.359-.265-1.315z" fill-rule="evenodd"/>
 <path d="m164.573,12.899c.972.255 1.716.738 1.579,2.103-1.558.142-.753.494-2.105,0-.376-1.168-.07-1.39.526-2.103z" fill-rule="evenodd"/>
 <path d="m114.624,13.163c.863.101 1.159.769 1.841,1.051-.066,1.628-1.927,1.019-2.366,1.052-.715.188.188-1.24-.526-1.052 .163-.994 1.098.285 1.051-1.051z" fill-rule="evenodd"/>
 <path d="m119.62,13.163c1.545-.072 2.145,1.506 1.313,2.366-.449.055-.68-.448-.789,0-.874-.07-1.042-1.718-.524-2.366z" fill-rule="evenodd"/>
 <path d="m140.125,13.163c.299,1.614-.492,2.136-1.314,2.628-1.447-.686-.601-3.041 1.314-2.628z" fill-rule="evenodd"/>
 <path d="m146.434,13.163c-.022.373-.042.745.263.788-.262.351-.71.517-.788,1.052-.234-.204-.594-.282-1.052-.263 .217-.742-.371-.68-.263-1.314 .34-.363 1.142-.261 1.84-.263z" fill-rule="evenodd"/>
 <path d="m155.899,13.951c.374,1.164-.89.688-.79,1.578-.45.055-.681-.448-.789,0-.344-.803-1.335-1.118-.789-2.104 1.177-.392 1.447.1 2.368.526z" fill-rule="evenodd"/>
 <path d="m110.944,13.688v1.314c-.311.303-.929.297-1.578.263-1.011-1.095.553-2.516 1.578-1.577z" fill-rule="evenodd"/>
 <path d="m128.558,13.425c-.006.62.453.774.262,1.578-.644.232-.964.789-2.103.526 .127-.829-.807-.596-.525-1.578 .617-.346 1.195-.733 2.366-.526z" fill-rule="evenodd"/>
 <path d="m181.398,13.688c1.102.126 1.673.782 1.578,2.103-.981.024-.748.295-1.578,0-.299-.736-.299-1.366 0-2.103z" fill-rule="evenodd"/>
 <path d="m148.8,14.739c.39.137.663.389 1.052.526 .221,1.099-.511,1.242-.525,2.103-1.38.14-1.28-2.132-.527-2.629z" fill-rule="evenodd"/>
 <path d="m104.897,15.002c-.127.828.807.596.526,1.578-.995-.38-.505.722-1.315.525-.851.325-.201-.851-1.051-.525-.184-1.324.546-1.733 1.84-1.578z" fill-rule="evenodd"/>
 <path d="m143.806,15.002c.463.903.226,1.971-.526,2.366-.843-.208-1.188-.915-1.052-2.103 .312-.302.93-.297 1.578-.263z" fill-rule="evenodd"/>
 <path d="m152.481,15.266c.385.49 1.055.697 1.051,1.578-.467.233-.668.734-1.578.525-.151-.55-.651-.75-.525-1.578 .6.074.988-.063 1.052-.525z" fill-rule="evenodd"/>
 <path d="m170.885,15.529c1.59-.117 2.242,1.409 1.313,2.365-.55.021-.988-.543-1.313-.262-.543-.227-.279-1.831 0-2.103z" fill-rule="evenodd"/>
 <path d="m111.996,16.054c.598.19 1.342.234 1.84.526-.117,1.023-.499,1.78-1.84,1.577-.391-.878-.676-1.286 0-2.103z" fill-rule="evenodd"/>
 <path d="m136.707,16.054c1.216-.251 1.225.703 1.84,1.051-.139.212-.274.427-.262.789-.339.362-1.143.261-1.841.263-.114-.904.104-1.473.263-2.103z" fill-rule="evenodd"/>
 <path d="m119.62,17.105c-.091,1.07-1.567,1.788-2.629,1.052-.204-1.859 1.841-2.318 2.629-1.052z" fill-rule="evenodd"/>
 <path d="m124.877,16.843c.14,1.833-.97,1.973-2.103,1.314-.478-1.9 1.209-2.245 2.103-1.314z" fill-rule="evenodd"/>
 <path d="m108.578,17.105c.346,1.722-1.36,1.981-2.366,1.578-.331-1.711 1.331-2.797 2.366-1.578z" fill-rule="evenodd"/>
 <path d="m159.316,16.843c1.164-.289 1.308.445 2.104.525-.086.614-.316,1.086-.526,1.578-.698-.003-1.502.098-1.84-.264-.153-.852.178-1.223.262-1.839z" fill-rule="evenodd"/>
 <path d="m103.057,17.369c.112.5.566.66.525,1.314-.774.102-.602,1.149-1.051,1.577-.923-.303-1.398-1.055-1.84-1.84 .876.62.757-1.574 2.366-1.051z" fill-rule="evenodd"/>
 <path d="m142.491,17.632c.155.943-.306,1.272-.526,1.84-.491-.209-.963-.439-1.577-.525v-1.315c.947-.093 1.267-.403 2.103,0z" fill-rule="evenodd"/>
 <path d="m146.434,17.632c.303.736.303,1.366 0,2.103-.648.034-1.267.04-1.577-.263-.205-1.345.491-1.788 1.577-1.84z" fill-rule="evenodd"/>
 <path d="m151.43,18.683c-.008.956-.773,1.154-1.841,1.052 .006-.619-.453-.774-.262-1.578 1.011-.218 1.521-.202 2.103.526z" fill-rule="evenodd"/>
 <path d="m164.312,17.894h1.313c.104.684.783.793.787,1.578-.658-.045-.637.588-1.05.789-.772-.193-1.132-.797-1.577-1.313 .112-.414.827-.226.527-1.054z" fill-rule="evenodd"/>
 <path d="m179.297,19.735c-.911-.214-1.11.491-1.578,0-.651-2.703 2.643-1.84 1.578,0z" fill-rule="evenodd"/>
 <path d="m156.161,18.157c-.126.828.808.596.526,1.578-.843-.23-.823.404-1.052.789-.45.056-.681-.448-.788,0-1.385-.617-.419-2.641 1.314-2.367z" fill-rule="evenodd"/>
 <path d="m111.206,18.947c.934.425 1.19,1.668.526,2.365-.633.108-.571-.48-1.315-.262-.318-1.283.594-1.336.789-2.103z" fill-rule="evenodd"/>
 <path d="m135.13,19.472h1.84c.088.931.723.646.263,1.578-.796.362-.939-.125-2.103,0v-1.578z" fill-rule="evenodd"/>
 <path d="m161.42,19.735h1.84v1.577c-1.104.431-.744.251-2.103,0-.19-.804.453-.774.263-1.577z" fill-rule="evenodd"/>
 <path d="m139.336,19.997c1.047-.083 1.942-.014 2.366.526-.304,1.482-1.176,1.384-2.366,1.051-.294-.827-.024-.594 0-1.577z" fill-rule="evenodd"/>
 <path d="m115.413,20.26c1.185-.045 2.406-.128 2.365,1.051-.255.008-.203.322-.262.526-1.404.404-2.803-.058-2.103-1.577z" fill-rule="evenodd"/>
 <path d="m144.857,21.049c-.021.855-.337,1.417-1.052,1.577-2.215-.638.023-3.587 1.052-1.577z" fill-rule="evenodd"/>
 <path d="m154.058,21.049c.119,1.372-1.375,1.536-2.366,1.052-.394-1.83 1.788-2.417 2.366-1.052z" fill-rule="evenodd"/>
 <path d="m181.663,20.26h2.366v1.578c-.545.156-1.729-.325-1.84.263-.393-.398-.422-1.154-.526-1.841z" fill-rule="evenodd"/>
 <path d="m105.685,20.523h1.052c.556,1.091.835,1.993-1.052,2.103-.521-.517-.166-1.501 0-2.103z" fill-rule="evenodd"/>
 <path d="m170.096,20.523h1.313c.473.894.199,1.724-.524,2.103-.98.015-.76-1.169-.789-2.103z" fill-rule="evenodd"/>
 <path d="m158.791,21.838c.569,1.008-.189,1.554-.789,2.103-1.168.116-1.431-.672-1.314-1.84 .381-.406 1.345-.232 2.103-.263z" fill-rule="evenodd"/>
 <path d="m167.466,22.101c-.196.809.724.505.526,1.315-.246.192-.397.477-.526.788-.697.308-1.549-.504-1.579,0-.534-.501-.525-1.141-.261-1.841 .911.212 1.01-.391 1.84-.262z" fill-rule="evenodd"/>
 <path d="m161.946,23.416c1.001-.125 1.639.111 1.84.788 .081,1.045-.505,1.423-1.579,1.315-.334-.734-.645-1.299-.261-2.103z" fill-rule="evenodd"/>
 <path d="m174.564,24.729c-.514,1.145-2.045.931-2.629-.263 .21-1.479 2.629-1.283 2.629.263z" fill-rule="evenodd"/>
 <path d="m158.791,25.256c1.035-.072 1.827.101 2.103.788 .068.858-.818.76-1.051,1.315-1.402.203-1.5-1.188-1.052-2.103z" fill-rule="evenodd"/>
 <path d="m170.358,25.519c.323,1.816-1.362,2.725-2.104,1.313-.15-1.235 1.107-2.053 2.104-1.313z" fill-rule="evenodd"/>
 <path d="m165.626,27.622v1.051c-.383.407-1.346.231-2.103.262-1.17-1.801 1.341-2.835 2.103-1.313z" fill-rule="evenodd"/>
 <path d="m162.733,29.199v1.314c-.616.083-.986.415-1.84.264 .005-.62-.452-.775-.263-1.578 .948-.092 1.269-.403 2.103,0z" fill-rule="evenodd"/>
 <path d="m71.247,29.725c.908.144 1.722.381 1.577,1.577-.698.09-.921.657-1.577.79 .096-.448-.206-.497-.526-.526-.155-.944.305-1.273.526-1.841z" fill-rule="evenodd"/>
 <path d="m77.292,29.988c1.311-.171 1.454.824 2.103,1.313-.475.401-.804.948-1.84.79 .096-.448-.205-.497-.525-.526-.191-.804.454-.773.262-1.577z" fill-rule="evenodd"/>
 <path d="m146.96,30.513c.44.464.88-.233 1.84,0-.005.62.453.773.263,1.578-.707-.182-.508.543-.788.788-.408-.599-.548-.496-1.315-.263 .011-.451-.196-.681-.526-.789-.196-.808.722-.504.526-1.314z" fill-rule="evenodd"/>
 <path d="m68.092,32.091c.912.227 2.067.211 1.84,1.577-1.129.613-.724.691-2.103.263 .002-.698-.1-1.502.263-1.84z" fill-rule="evenodd"/>
 <path d="m106.211,32.354v1.314c-.996.498-1.422.368-2.629.263-.681-2.124 1.447-2.102 2.629-1.577z" fill-rule="evenodd"/>
 <path d="m144.068,32.879c.282.245.083.969.79.789-.254.71-.66,1.269-1.578,1.315 .123-.562-.375-.501-.789-.526-.13-1.182.271-1.832 1.577-1.578z" fill-rule="evenodd"/>
 <path d="m211.894,32.879c.895.072 2.134-.204 2.632.262 .498,1.464-.999.93-1.053,1.841-1.087-.394-2.169-.691-1.579-2.103z" fill-rule="evenodd"/>
 <path d="m124.089,33.142h1.84c.479.9.135,1.435-.263,2.104-.818-.41-1.792-.663-1.577-2.104z" fill-rule="evenodd"/>
 <path d="m179.559,35.246c-.415.021-1.002-.127-1.051.262-.597-.28-.956-.797-1.051-1.577 1.065-1.21 2.921-.612 2.102,1.315z" fill-rule="evenodd"/>
 <path d="m152.744,33.668c.643.262.561.088 1.578.263 .358,1.151.032,1.352-.263,2.366-1.032-.067-1.122-.276-2.103-.79-.252-1.127.737-1.013.788-1.839z" fill-rule="evenodd"/>
 <path d="m63.359,33.931c1.042.096 2.52-.241 3.155.263-.264,2.659-2.818,1.926-3.155-.263z" fill-rule="evenodd"/>
 <path d="m74.664,34.72c-.146.643-.617.96-1.051,1.314-.743.041-.659-.743-1.052-1.051-.035-1.662 1.577-.877 2.103-.263z" fill-rule="evenodd"/>
 <path d="m134.078,33.931c1.249-.108 2.282-.003 2.893.525-.09.7-.657.922-.788,1.578-1.36.219-1.77-.51-2.366-1.051-.035-.472.321-.555.261-1.052z" fill-rule="evenodd"/>
 <path d="m218.205,33.931h1.84c.618,1.04-.259,1.267-.526,2.103-.316-.297-.475-.751-1.313-.526-.026-.982-.296-.749-.001-1.577z" fill-rule="evenodd"/>
 <path d="m174.038,36.297c-.214.925-.96,1.317-2.103,1.313-.584-.789-.311-.917-.264-2.103 1.257-.47 1.379.39 2.367.79z" fill-rule="evenodd"/>
 <path d="m156.688,35.508c.522.439.334-.023 1.052,0 .297,1.031 1.145,1.429.263,2.366-1.145-.094-1.208-.04-1.841-.263-.288-1.164.445-1.307.526-2.103z" fill-rule="evenodd"/>
 <path d="m184.029,36.034c.839.211 1.489.612 1.575,1.577-.882-.183-.86.542-1.313.79-.702-.349-1.539-.565-1.314-1.84 .668-.455 1.018.399 1.052-.527z" fill-rule="evenodd"/>
 <path d="m98.851,36.297c1.17-.208 1.748.18 2.365.525-.214.662-.706,1.047-1.051,1.578-1.273-.16-1.671-.949-1.314-2.103z" fill-rule="evenodd"/>
 <path d="m176.668,36.297c.521.438.334-.023 1.051,0-.127.828.809.595.525,1.577-.705-.181-.509.543-.787.79-.235-.163-.471-.317-.526,0-.692.077-.207-1.021-1.053-.79 .091-.699.657-.921.79-1.577z" fill-rule="evenodd"/>
 <path d="m78.607,36.823c.042.831.01,1.586-.525,1.841-1.061.009-1.325-.779-1.314-1.841 .497-.521 1.241-.128 1.839,0z" fill-rule="evenodd"/>
 <path d="m58.365,36.823c1.566-.313 1.834,1.077 1.314,2.103h-1.314c-.303-.736-.303-1.366 0-2.103z" fill-rule="evenodd"/>
 <path d="m62.045,36.823c2.014-.247 2.34,2.432.526,2.629 .144-.539-.503-.628-.526-.263-1.063-.639-.134-1.489 0-2.366z" fill-rule="evenodd"/>
 <path d="m67.041,36.823h1.051c.137.389.389.663.525,1.051 .197.811-.906.321-.525,1.315-1.141.09-1.38-.724-1.578-1.578 .562.123.501-.374.527-.788z" fill-rule="evenodd"/>
 <path d="m222.411,36.823c.745.044 1.096.482 1.84.526 .107.633-.479.571-.263,1.314-.417.021-1.004-.127-1.051.262-.757-.031-.458-1.121-1.313-1.052 .261-.35.71-.515.787-1.05z" fill-rule="evenodd"/>
 <path d="m72.298,37.611c.151.55.652.751.525,1.578-.382.406-1.346.232-2.103.263-.233-1.372.231-2.047 1.578-1.841z" fill-rule="evenodd"/>
 <path d="m125.14,37.611c.955.01 2.076-.146 2.365.526-.132.744-.748,1.005-1.313,1.315-.956-.009-1.155-.773-1.052-1.841z" fill-rule="evenodd"/>
 <path d="m150.378,37.611c.083.619.415.987.262,1.841-1.033.227-1.123.271-2.104-.263v-1.315c.34-.361 1.144-.26 1.842-.263z" fill-rule="evenodd"/>
 <path d="m233.716,37.611c-.282.983.653.75.526,1.578-.59.6-2.408.889-2.631-.263 .137-1.003.939-1.341 2.105-1.315z" fill-rule="evenodd"/>
 <path d="m154.058,37.874c.627.163.432,1.146 1.578.79-.032,1.371-1.137,1.667-2.103,2.103-.041-.836-.596-1.157-.526-2.103 .659.044.639-.59 1.051-.79z" fill-rule="evenodd"/>
 <path d="m58.102,38.664c.165,1.127-.234,1.693-.788,2.103-.356-.259-.526-.702-.79-1.052-.024-.906.909-1.643 1.578-1.051z" fill-rule="evenodd"/>
 <path d="m174.038,38.4c.81-.196.505.721 1.313.525 .223,1.099-.509,1.242-.525,2.103-1.169-.235-1.081-.141-1.84-.789-.339-1.301.95-.978 1.052-1.839z" fill-rule="evenodd"/>
 <path d="m132.501,38.926v1.051c-.658-.525-1.121.826-1.578,1.315-.518-.621-1.614-.665-1.314-2.103 .832-.183 1.945-1.019 2.892-.263z" fill-rule="evenodd"/>
 <path d="m181.398,39.452c.047.746-.888.512-.524,1.577-.713-.738-.654-.208-1.577,0-.141-.927-.771-1.176-.265-2.103 1.391-.037 1.698-.357 2.366.526z" fill-rule="evenodd"/>
 <path d="m218.992,38.926c.19.803-.268.958-.261,1.578h-1.315c-.174-.553-.695-1.169-.264-1.578 .719-.276 1.121-.276 1.84,0z" fill-rule="evenodd"/>
 <path d="m73.086,38.926c.815-.027 1.256.322 1.84.526v1.051c-.813.002-.52.57-1.84.525-.301-.735-.301-1.365 0-2.102z" fill-rule="evenodd"/>
 <path d="m112.258,38.926c.61.583.704.232 1.314.526v1.314c-.31.303-.93.297-1.577.262-.356-.775-.329-1.626.263-2.102z" fill-rule="evenodd"/>
 <path d="m66.251,39.452c-.033.472.322.554.263,1.051-.841-.052-1.137.441-1.315,1.052-.351-.262-.516-.71-1.051-.789-.231-1.37.842-1.437 2.103-1.314z" fill-rule="evenodd"/>
 <path d="m213.999,39.977c.034.648.038,1.267-.263,1.578-1.361.046-2.395-.234-2.366-1.578 .836-.244 1.384-.662 2.629,0z" fill-rule="evenodd"/>
 <path d="m59.153,39.977c1.241-.189 1.555.548 2.103,1.052-.212.573-1.055.712-1.84,1.314-.359-.522-.906-1.646-.263-2.366z" fill-rule="evenodd"/>
 <path d="m68.354,40.24c.384.493.867.887 1.315,1.315-.205.233-.283.594-.262,1.052-.904.115-1.474-.104-2.104-.264-.075-1.463.885-1.484 1.051-2.103z" fill-rule="evenodd"/>
 <path d="m221.358,40.24c.522.438.334-.023 1.053,0 .077.535.526.701.787,1.052-.31,1.716-1.968,1.299-2.366,0 .005-.522.72-.334.526-1.052z" fill-rule="evenodd"/>
 <path d="m53.896,40.767h1.84c-.006.619.453.773.263,1.577-.718-.023-.529.439-1.051,0 .076,1.193.385,1.575-.263,2.366h-1.578c.006-.619-.452-.774-.262-1.577 1.017.291.935-.929 1.577-.263-.016-.862-.749-1.006-.526-2.103z" fill-rule="evenodd"/>
 <path d="m105.685,40.767c1.381-.031 1.078.263 2.103.789-.841,1.295-1.806,2.002-2.628.263 .113-.414.827-.226.525-1.052z" fill-rule="evenodd"/>
 <path d="m178.508,41.292c.445,1.775-1.525,2.374-2.366,1.315-.015-1.475 1.397-2.316 2.366-1.315z" fill-rule="evenodd"/>
 <path d="m72.035,41.029c.303.737.303,1.367 0,2.104-1.422.37-1.215-.888-1.84-1.314 .627-.251.78-.974 1.84-.79z" fill-rule="evenodd"/>
 <path d="m153.27,41.029c.303.737.303,1.367 0,2.104-2.615.776-2.808-2.978 0-2.104z" fill-rule="evenodd"/>
 <path d="m190.076,42.607c-.672.294-1.207.723-2.105.788-1.614-2.048 1.698-3.275 2.105-.788z" fill-rule="evenodd"/>
 <path d="m61.782,43.395c.505-.029-.308-.88 0-1.577 .995.38.505-.723 1.314-.526 .985.968.912,2.238-.788,2.366v1.84c-1.618.391-1.75-.703-2.366-1.314 .262-.351.71-.516.788-1.051 .35.643.979-.29 1.052.262z" fill-rule="evenodd"/>
 <path d="m143.28,42.87c-1.228,1.13-3.047-.363-1.84-1.578 1.294-.155 2.024.253 1.84,1.578z" fill-rule="evenodd"/>
 <path d="m171.409,41.555c.62.338.49-.034 1.315.263 .501.924-.25,1.275-.526,2.103-1.177.162-1.313-1.651-.789-2.366z" fill-rule="evenodd"/>
 <path d="m96.748,42.081c.432,1.669-1.269,2.277-2.366,1.578-.492-1.462 1.131-2.011 2.366-1.578z" fill-rule="evenodd"/>
 <path d="m128.032,43.658c-1.019.692-2.675.155-2.366-1.315 .974-.408 2.425-.922 2.366,1.315z" fill-rule="evenodd"/>
 <path d="m87.02,42.081c1.036-.071 1.827.102 2.104.789 .13,1.27-.943,1.336-2.104,1.314-.092-.946-.401-1.267 0-2.103z" fill-rule="evenodd"/>
 <path d="m197.436,42.081c.413.113.227.827 1.053.526 .381,1.433-.835,1.269-1.053,2.103-.398-.652-1.031-1.07-1.051-2.103 .465-.496.815.359 1.051-.526z" fill-rule="evenodd"/>
 <path d="m76.241,42.343c1.45.215.792,1.356.526,2.366-.917-.222-1.255-1.023-1.315-2.103 .374.023.745.044.789-.263z" fill-rule="evenodd"/>
 <path d="m205.321,42.343c1.207-.064 1.926.355 2.366,1.052-.654,1.243-1.272.93-2.627.789-.308-.742-.051-1.116.261-1.841z" fill-rule="evenodd"/>
 <path d="m155.636,42.607c1.106-.318 1.152.424 1.84.526 .19.802-.269.958-.263,1.577h-1.577c-.092-.947-.402-1.267 0-2.103z" fill-rule="evenodd"/>
 <path d="m162.733,42.607h1.313c.312,1.216 1.121,1.49.266,2.629-.225-.565-.969-.609-1.84-.526 .031-.757-.145-1.721.261-2.103z" fill-rule="evenodd"/>
 <path d="m66.514,42.87c.303.736.303,1.366 0,2.104h-1.84c.022-.374.042-.745-.263-.79 .397-.742.735-1.544 2.103-1.314z" fill-rule="evenodd"/>
 <path d="m184.554,43.133c.854-.153 1.224.179 1.842.262v1.314c-.34.363-1.142.26-1.842.264-.058-.962-.362-1.009 0-1.84z" fill-rule="evenodd"/>
 <path d="m68.354,43.395c.832-.043.879.699 1.841.526 .507,1.667-.743,2.329-2.103,1.577-.115-.904.104-1.473.262-2.103z" fill-rule="evenodd"/>
 <path d="m73.35,43.395c-.006.619.453.774.263,1.578-.528-.09-.823.053-.79.525-.412-.112-.225-.827-1.051-.525-.129-1.182.271-1.832 1.578-1.578z" fill-rule="evenodd"/>
 <path d="m120.145,43.658c.133,2.346-2.518,2.818-2.628.525 .983-.028 1.48-1.48 2.628-.525z" fill-rule="evenodd"/>
 <path d="m173.775,43.395h1.576c-.096.447.206.497.526.526-.209.491-.438.963-.526,1.577-1.056-.039-1.736-.305-1.576-2.103z" fill-rule="evenodd"/>
 <path d="m138.022,44.447v1.051c-.723.527-2.814.2-2.892,0-.075-.47.248-.539.262-.262 .209-.03.797-.87.263-.789 .752-.607 1.587-.437 2.367,0z" fill-rule="evenodd"/>
 <path d="m97.536,44.184c1.101-.55 1.431.989 1.84.263 .76.948-.526,2.092-1.84,1.84-.303-.737-.303-1.367 0-2.103z" fill-rule="evenodd"/>
 <path d="m180.348,44.184c.225.477.678.725.789,1.314 .009,1.023-1.574,1.389-2.366.789-.297-1.609 1.055-2.075 1.577-2.103z" fill-rule="evenodd"/>
 <path d="m86.231,44.973v2.366c-.994-.381-.504.722-1.315.525 .359-1.148-1.017-.56-.789-1.578 .752-.387.688-1.591 2.104-1.313z" fill-rule="evenodd"/>
 <path d="m90.438,44.973c.501.493.476-.156 1.314,0 .717.793-.182,1.566-.263,2.366-1.127.011-.864-.325-1.84-.79-.108-.633.48-.571.263-1.314 .323.294.54.23.526-.262z" fill-rule="evenodd"/>
 <path d="m154.848,44.973c-.069.769.594.808.525,1.577-.98.648-1.074.731-2.629.526 .006-.62-.453-.775-.262-1.578 .976.014 1.04-.887 2.366-.525z" fill-rule="evenodd"/>
 <path d="m158.791,44.973h1.052c.363,1.07 1.332.654.789,2.366-1.147.216-3.506-.156-1.841-2.366z" fill-rule="evenodd"/>
 <path d="m225.83,45.236c.14,1.104-.847,1.083-1.053,1.84-.877.002-.697-1.056-1.313-1.315 .239-.703 1.617-1.142 2.366-.525z" fill-rule="evenodd"/>
 <path d="m221.1 46.287c0.018 1.071-0.971 1.132-2.105 1.053-1.494-1.815 1.339-2.819 2.105-1.053z" fill-rule="evenodd"/>
 <path d="m72.035,45.761c.104,1.067-.097,1.832-1.052,1.84-1.436-.496-.43-2.945 1.052-1.84z" fill-rule="evenodd"/>
 <path d="m75.189,45.498c.146,1.373-.208,2.246-1.577,2.103-.691-1.017-.141-2.661 1.577-2.103z" fill-rule="evenodd"/>
 <path d="m111.732,45.498c.562,1.002.055,1.799-.526,2.366-.871-.517-1.508-.861-1.052-2.103 .805.191.774-.453 1.578-.263z" fill-rule="evenodd"/>
 <path d="m66.251,45.761c.785.004.894.684 1.578.789-.136,1.819-2.061,1.397-2.629,1.051-.771-.224.342-.661 0-1.314 .466-.06 1.316.265 1.051-.526z" fill-rule="evenodd"/>
 <path d="m149.327,45.761h1.577c.114.5.567.66.526,1.315-.97.543-1.367.929-2.366.263-.191-.804.453-.773.263-1.578z" fill-rule="evenodd"/>
 <path d="m171.936,45.761h1.84c.52,1.839-.753,1.798-1.577,2.103-.159-.63-.379-1.199-.263-2.103z" fill-rule="evenodd"/>
 <path d="m178.244,45.761c.305.737.305,1.367 0,2.103-1.067.104-1.831-.096-1.84-1.051 .191-.772.821-1.108 1.84-1.052z" fill-rule="evenodd"/>
 <path d="m195.069,46.024c1.827.039 2.152,1.642 1.053,2.628-.997-.315-1.482-1.647-1.053-2.628z" fill-rule="evenodd"/>
 <path d="m64.148,46.813c.067,1.031-.256,1.672-.789,2.103-1.239-.303-1.278-.785-1.051-2.103 .962-.058 1.008-.362 1.84,0z" fill-rule="evenodd"/>
 <path d="m184.554,47.076c.19.803-.268.957-.263,1.577-.65.341-1.275-.586-1.314,0-.419-.368-.671-.905-.787-1.577 .877-.477 1.573-.71 2.364,0z" fill-rule="evenodd"/>
 <path d="m208.214,46.55c1.164-.112 1.665.438 1.84,1.314-.798.305-1.095,1.109-1.574,1.052-1.111-.49-.51-1.348-.266-2.366z" fill-rule="evenodd"/>
 <path d="m215.052,46.813c.466.41 1.012.739.787,1.84-.338.362-1.143.261-1.84.263 .021-.373.043-.745-.263-.789 .113-.413.827-.225.523-1.051 .426-.074.454.248.792.263 .001-.175.001-.351.001-.526z" fill-rule="evenodd"/>
 <path d="m128.032,47.076h1.315c-.192.716.522.528.525,1.051 .197.81-.906.32-.525,1.315-.599.36-.989-.678-1.052,0-.757-.346-.54-1.667-.263-2.366z" fill-rule="evenodd"/>
 <path d="m188.762,47.076c1.169-.031 2.055.225 1.84,1.577-.523.496-1.125.247-1.315.526-.91-.195-.895-1.312-.525-2.103z" fill-rule="evenodd"/>
 <path d="m96.221,47.864c-.047,1.18-1.041,1.413-1.84,1.841-.467-.41-1.013-.74-.79-1.841 1.35-.44 1.191-.348 2.63,0z" fill-rule="evenodd"/>
 <path d="m156.161,47.339c1.03-.154.672,1.08 1.315,1.313-.003.523-.717.335-.525,1.053-1.851.384-1.879-1.926-.79-2.366z" fill-rule="evenodd"/>
 <path d="m140.914,47.864c.271.606.905.848.789,1.841-.777-.146-1.339.588-2.366-.263-.131-1.182.27-1.832 1.577-1.578z" fill-rule="evenodd"/>
 <path d="m144.331,47.864c1.452-.225 1.934.52 2.103,1.578-1.002,1.271-3.209-.053-2.103-1.578z" fill-rule="evenodd"/>
 <path d="m88.598,48.127c.994-.381.505.722 1.314.525-.288.589-.436,1.318-.788,1.841-.455-.422-1.626-.127-1.841-.788-.074-.471.248-.541.263-.263 .09-.699.976-.601 1.052-1.315z" fill-rule="evenodd"/>
 <path d="m105.948,48.127c1.043-.166.753.999 1.84.789-.583,1.458-1.746,1.825-2.628.526 .154-.547.552-.85.788-1.315z" fill-rule="evenodd"/>
 <path d="m162.207,48.127c-.273,1.315.007,2.494.266,4.469-1.173.546-1.943.434-2.63-.788 .002-.788.472-1.105 1.051-1.315-.011-.954-1.083-.845-1.314-1.578 .337-.8 1.376-.901 2.627-.788z" fill-rule="evenodd"/>
 <path d="m166.152,48.127c.507.928-.124,1.176-.266,2.103-1.065.104-1.831-.096-1.84-1.051 .146-.908.908-1.197 2.106-1.052z" fill-rule="evenodd"/>
 <path d="m69.669,48.391c.015.861.748,1.004.526,2.103-.828-.127-.596.807-1.578.525-.39-.312-.409-.993-.789-1.313 .404-.65.62-1.485 1.841-1.315z" fill-rule="evenodd"/>
 <path d="m174.826,48.391c1.572.442 1.219,1.529.525,2.628-.449.056-.68-.448-.787,0-.582-.568-.918-1.534-.526-2.366 .573-.167.837.745.788-.262z" fill-rule="evenodd"/>
 <path d="m179.823,48.391c.809-.197.319.906 1.313.525v1.578h-2.104c.09-.527-.052-.822-.524-.788-.169-1.047 1.376-.378 1.315-1.315z" fill-rule="evenodd"/>
 <path d="m123.826,48.653c.171,1.224-.092,2.011-1.315,1.841-.797-.819-.411-2.172 1.315-1.841z" fill-rule="evenodd"/>
 <path d="m134.604,51.019c-.62-.082-.489-.913-1.314-.789 .006-2.867 2.993-.757 1.314.789z" fill-rule="evenodd"/>
 <path d="m201.907,48.653c-.129.828.804.596.523,1.578-.725.151-.922.83-1.84.789-.502-1.055-.369-2.738 1.317-2.367z" fill-rule="evenodd"/>
 <path d="m83.34,48.916c.351.262.516.71 1.051.79 .126.826-.374,1.027-.526,1.577-.804-.377-.824.096-1.84-.263-.218-1.357 1.025-1.255 1.315-2.104z" fill-rule="evenodd"/>
 <path d="m116.465,48.916c1.356-.129 2.091.361 2.103,1.578-.645.232-.965.788-2.103.525-.428-.861.058-1.004 0-2.103z" fill-rule="evenodd"/>
 <path d="m186.396,48.916c.85-.325.201.85 1.051.526-.066.898-.494,1.433-.789,2.103-.809.196-.505-.722-1.313-.526-.385-1.434.833-1.269 1.051-2.103z" fill-rule="evenodd"/>
 <path d="m102.005,49.706v1.313c-.427.396-1.94.396-2.366,0v-1.313c.942-.127 1.519-.429 2.366,0z" fill-rule="evenodd"/>
 <path d="m154.584,51.019c-1.799.033-1.748.926-2.893,0-.576-2.099 3.503-2.248 2.893,0z" fill-rule="evenodd"/>
 <path d="m193.756,50.494c-.561.843-1.065,1.739-2.63,1.577-1.132-2.422 1.487-3.224 2.63-1.577z" fill-rule="evenodd"/>
 <path d="m221.098,49.706c.154.943-.308,1.271-.526,1.84-.451-.071-1.035-.561-1.053.263-.426-.451-.796-.958-.787-1.841 .783-.319 1.681-.525 2.366-.262z" fill-rule="evenodd"/>
 <path d="m217.679,49.967c.225,1.101-.32,1.432-.787,1.841-.843.052-1.138-.441-1.315-1.053 .097-.845 1.37-1.386 2.102-.788z" fill-rule="evenodd"/>
 <path d="m223.988,49.706h1.051c.423.845.218,1.741-.262,2.365-.838-.361-1.296-1.391-.789-2.365z" fill-rule="evenodd"/>
 <path d="m206.637,50.494c.571-.045.12.932.264,1.315-.62.2-1.816.518-2.366,0-.433-2.127 1.695-1.248 2.102-1.315z" fill-rule="evenodd"/>
 <path d="m141.177,50.756c.607,1.16.112,2.48-1.578,2.103-.602-1.153-.037-2.404 1.578-2.103z" fill-rule="evenodd"/>
 <path d="m176.404,50.756c.693-.312.679,1.264.788,0 .521.004.336.718 1.052.526 .007.619-.453.774-.263,1.577-.697-.002-1.5.1-1.84-.262-.211-.913.392-1.011.263-1.841z" fill-rule="evenodd"/>
 <path d="m88.334,51.019v1.578c-1.802-.049-1.347,2.159-2.103,3.155-.642-.162-1.792-1.167-1.315-1.578-.251-.952 1.135-.267 1.315-.788 .128-.83-.474-.929-.263-1.84 .618-.347 1.196-.734 2.366-.527z" fill-rule="evenodd"/>
 <path d="m90.964,51.019c1.249-.198 1.439.663 2.103,1.051 .2.99-1.396.182-1.052,1.315-1.021-.032-1.329-.774-1.84-1.315 .106-.507 1.204-.022.789-1.051z" fill-rule="evenodd"/>
 <path d="m149.327,51.019c.21.492.438.963.525,1.578-.339.362-1.142.26-1.84.262-.571-1.039-.179-2.135 1.315-1.84z" fill-rule="evenodd"/>
 <path d="m156.688,51.282c.588.228 1.083.007 1.577.788 .101.889-.456,1.123-.788,1.578-1.043-.197-1.777-1.635-.789-2.366z" fill-rule="evenodd"/>
 <path d="m174.302,52.07c.06,1.287-1.029,1.426-2.366,1.315-.309-.394-.327-1.075-.79-1.315 .779-.842 2.43-1.039 3.156,0z" fill-rule="evenodd"/>
 <path d="m96.221,51.809h1.315c.207,1.17-.18,1.748-.526,2.365-.746.045-.512-.889-1.577-.525v-.526c.134-.721.635-.23.788-1.314z" fill-rule="evenodd"/>
 <path d="m138.285,51.809c-.006.618.452.773.262,1.577-.983.375-1.359.663-2.103.263v-1.578c.83.129.929-.474 1.841-.262z" fill-rule="evenodd"/>
 <path d="m212.686,52.07v1.315c-.34.363-1.143.26-1.842.263-.724-1.461.515-2.257 1.842-1.578z" fill-rule="evenodd"/>
 <path d="m129.609,52.07c.156.469-.771,1.092 0,1.315-.113.588-1.296.107-1.841.263-.698-1.204.287-1.878 1.841-1.578z" fill-rule="evenodd"/>
 <path d="m190.076,54.173c-.736.646-1.771-.201-1.84,0-.582-.032-.111-1.114-.266-1.577 1.295-.473 2.397-.196 2.106,1.577z" fill-rule="evenodd"/>
 <path d="m183.24,52.859c.169,1.395-.807,1.647-1.577,2.104 .231-.845-.868-.36-.789-1.051-.032-.472.323-.555.263-1.053 1.097.06 1.241-.427 2.103,0z" fill-rule="evenodd"/>
 <path d="m122.248,54.437c-.721.427-1.262,1.19-2.366.526-.93-1.897 2.261-3.004 2.366-.526z" fill-rule="evenodd"/>
 <path d="m143.28,52.859h1.84c-.005.621.454.774.263,1.578-.468.145-1.091.135-1.315.526-.489-.475-.963-.965-.788-2.104z" fill-rule="evenodd"/>
 <path d="m218.73 55.225h-1.579c-1.042-2.416 3.413-2.46 1.579 0z" fill-rule="evenodd"/>
 <path d="m103.057,53.385c.302.31.297.93.263,1.578-.618.083-.988.415-1.841.262-.112-.268-.566-1.375-.525-.262-.57.044-.12-.933-.264-1.314 .583.505 1.068-.681 2.367-.264z" fill-rule="evenodd"/>
 <path d="m106.475,53.385h1.84c.152.55.651.751.526,1.578-.904-.115-1.474.104-2.104.262-.381-.658-.637-1.032-.262-1.84z" fill-rule="evenodd"/>
 <path d="m152.481,53.385c.302.736.302,1.367 0,2.103-1.058-.1-.646-.169-1.578-.525 .078-.973.377-1.728 1.578-1.578z" fill-rule="evenodd"/>
 <path d="m204.271,53.648c.534,1.001-.529,1.427-1.051,2.103-.473.033-.557-.322-1.053-.263-.247-1.935.544-2.287 2.104-1.84z" fill-rule="evenodd"/>
 <path d="m82.813,54.437c.197.81-.906.321-.525,1.314-1.09.07-1.024-.346-1.841,0 .491-.467-.213-.668 0-1.578 .938-.133 1.616-.95 2.366.264z" fill-rule="evenodd"/>
 <path d="m132.501,53.648h2.366c-.042.306.058.467.263.525 .057,1.197-1.214,1.065-1.841,1.578-.126-.837-.828-1.099-.788-2.103z" fill-rule="evenodd"/>
 <path d="m215.312,53.648v1.314c-.338.362-1.143.26-1.84.262 .111-.505-.18-.949-.263-.525-.665-.681.936-1.331 2.103-1.051z" fill-rule="evenodd"/>
 <path d="m149.063,54.963c.544,2.739-3.426,1.844-2.366,0 1.207-.068 1.27-.28 2.366,0z" fill-rule="evenodd"/>
 <path d="m255.8,55.225c.124.828-.377,1.028-.526,1.578-2.05.53-1.663-3.471.526-1.578z" fill-rule="evenodd"/>
 <path d="m263.949,55.225c.189.803-.268.958-.264,1.578h-.787c-2.069-.495-.384-3.202 1.051-1.578z" fill-rule="evenodd"/>
 <path d="m114.624,54.963c.152.549.652.75.526,1.577-.918.767-2.196.674-2.63-.262 .042-1.1.843-1.437 2.104-1.315z" fill-rule="evenodd"/>
 <path d="m185.869,54.963c.646-.035 1.267-.041 1.577.262 .152.854-.18,1.224-.263,1.841-.964-.289-1.861-1.051-1.314-2.103z" fill-rule="evenodd"/>
 <path d="m207.688,55.225c.225-.048.248.103.266.263 .158.633.406-.782 1.313-.263 .287.708.049,1.349-.263,2.103h-1.051c-.438-.836-.449-1.099-.265-2.103z" fill-rule="evenodd"/>
 <path d="m88.598,55.488c.959-.171 1.4.178 1.84.526-.077,1.149-.651,1.801-2.103,1.577 .031-.757-.144-1.72.263-2.103z" fill-rule="evenodd"/>
 <path d="m190.863,55.488c1.048.299 1.063,1.047.789,2.103-1.256.204-1.555-.549-1.576-1.577 .526.09.821-.053.787-.526z" fill-rule="evenodd"/>
 <path d="m127.505,57.066c.1.8-.955.446-1.051,1.052-3.259-.439.517-4.123 1.051-1.052z" fill-rule="evenodd"/>
 <path d="m131.45,55.751c.506.929-.086,1.439-.526,2.103-.346-.268-.969-.258-1.314-.526-.185-1.323.544-1.733 1.84-1.577z" fill-rule="evenodd"/>
 <path d="m140.125,55.751c-.158.947.802.774.789,1.577-.447-.096-.496.206-.525.526-1.206-.235-1.226-.287-1.841-.789-.082-1.044.504-1.423 1.577-1.314z" fill-rule="evenodd"/>
 <path d="m98.851,56.015c1.176.022 1.174,1.513.789,2.366-1.279.402-.99-.764-1.84-.79 .271-.604.542-1.21 1.051-1.576z" fill-rule="evenodd"/>
 <path d="m94.907,56.803c.184,1.147-.758,1.169-.789,2.103-.872.063-1.14-.523-1.578-.263-.58-.032-.111-1.115-.262-1.577 .42.391 1.556-1.308 2.629-.263z" fill-rule="evenodd"/>
 <path d="m195.069,56.803c.503.493.475-.156 1.315,0-.126.828.807.595.524,1.578-.467.233-.668.734-1.574.525 .094-.447-.206-.497-.526-.525-.193-.804.454-.774.261-1.578z" fill-rule="evenodd"/>
 <path d="m199.275,56.803c.809.184.505.184 1.315,0 1.82,2.275-2.698,3.092-1.315,0z" fill-rule="evenodd"/>
 <path d="m268.682,56.803c1.062-.364.832.57 1.576.525 .208,1.347-.466,1.811-1.84,1.578-.115-.904.103-1.473.264-2.103z" fill-rule="evenodd"/>
 <path d="m143.806,58.906c-.995-.381-.505.722-1.314.525-.05-.297-.264-.146-.263,0-2.055-1.47 2.005-3.474 1.577-.525z" fill-rule="evenodd"/>
 <path d="m111.469,58.381c.851-.325.201.851 1.051.525 .208,1.347-.467,1.81-1.84,1.578 .19-.805-.453-.773-.263-1.578 .467-.06 1.317.265 1.052-.525z" fill-rule="evenodd"/>
 <path d="m104.634,59.431c.157,1.355-1.234,1.453-2.103,1.053-.904-1.722 1.351-2.413 2.103-1.053z" fill-rule="evenodd"/>
 <path d="m136.444,60.484c-.426.395-1.939.395-2.367,0-.652-2.356 3.069-2.488 2.367,0z" fill-rule="evenodd"/>
 <path d="m106.475,58.906c.67.32 1.533-.158 2.103.263-.217.742.37.68.263,1.314-.624.48-1.521.686-2.366.262v-1.839z" fill-rule="evenodd"/>
 <path d="m98.062,59.169c.561,1-.014,1.729-.262,2.628-.803.19-.958-.269-1.578-.262-.013-1.414.327-2.477 1.84-2.366z" fill-rule="evenodd"/>
 <path d="m131.45,59.169c.861.014 1.004.748 2.103.525 .29,2.15-1.778,1.741-2.629,1.578-.263-1.139.293-1.459.526-2.103z" fill-rule="evenodd"/>
 <path d="m114.624,59.958h1.841c.158.63.377,1.199.262,2.103h-1.84c-.243-1.032-.573-.977-.263-2.103z" fill-rule="evenodd"/>
 <path d="m122.511,59.958c1.106-.316 1.153.425 1.84.526 .007.619-.452.773-.262,1.577h-1.578c-.362-.796.125-.939 0-2.103z" fill-rule="evenodd"/>
 <path d="m129.083,59.958c.085,2.002-.587,2.486-2.366,2.103 .085-1.406.607-2.374 2.366-2.103z" fill-rule="evenodd"/>
 <path d="m247.388,59.958h1.313c.471.895.199,1.725-.526,2.103-.925-.224-1.155-1.296-.787-2.103z" fill-rule="evenodd"/>
 <path d="m255.536,59.958c.135,1.536-.753,2.052-2.103,2.103-.71-1.368.236-2.528 2.103-2.103z" fill-rule="evenodd"/>
 <path d="m90.964,60.484c.957-.081 1.71.042 2.366.262-.222.306-.347.705-.263,1.314-.461.498-.914-.459-.789.789-1.353.213-2.328-.962-1.314-2.365z" fill-rule="evenodd"/>
 <path d="m140.125,61.272c.189.803-.269.957-.263,1.577h-1.577c-.728-1.28.729-2.857 1.84-1.577z" fill-rule="evenodd"/>
 <path d="m162.997,60.746c.584.726.5,1.336.263,2.366-.821-.054-1.93.177-2.366-.263-.224-1.962 1.009-2.06 2.103-2.103z" fill-rule="evenodd"/>
 <path d="m101.742,62.324c.346.816-.072.75 0,1.84-.969.346-2.392.238-3.418.526 .145-.583-.501-.374-.525-.79 .042-1.678 2.769-1.886 3.943-1.576z" fill-rule="evenodd"/>
 <path d="m119.093,62.324c-.127.828.807.595.526,1.577-.645.232-.965.789-2.103.526-.527-1.078-.032-2.4 1.577-2.103z" fill-rule="evenodd"/>
 <path d="m113.835,62.849c-.09.527.053.823.525.79-.293.407-.854.547-.789,1.314-.943.154-1.272-.306-1.84-.526-.08-1.307.656-1.8 2.104-1.578z" fill-rule="evenodd"/>
 <path d="m150.641,62.849h1.841c-.012.45.195.681.525.79-.296.316-.75.476-.525,1.314-1.782.403-2.544-.8-1.841-2.104z" fill-rule="evenodd"/>
 <path d="m106.211,63.112c.41,1.297.091,2.705-1.578,2.629 .044-.833-.699-.879-.525-1.841 1.187-.365.65-.891 2.103-.788z" fill-rule="evenodd"/>
 <path d="m122.248,63.375c-.096.447.206.496.526.525-.012,1.041-.836,1.267-1.051,2.104-.317-.297-.477-.751-1.315-.526-.18-.826.03-1.074-.263-1.315 .658-.305 1.011-.916 2.103-.788z" fill-rule="evenodd"/>
 <path d="m126.717,64.164c-.01,1.877-2.71,2.623-2.367,0 .697-.603 1.671-.603 2.367,0z" fill-rule="evenodd"/>
 <path d="m244.495,63.9c.757.032 1.72-.143 2.103.263v1.315c-.498.117-1.585-.357-1.315.526-.489-.474-.964-.964-.788-2.104z" fill-rule="evenodd"/>
 <path d="m250.015,63.9c.905-.114 1.474.105 2.105.263 .106.633-.481.571-.266,1.315-.979.023-.749.294-1.577,0-.301-.31-.297-.929-.262-1.578z" fill-rule="evenodd"/>
 <path d="m109.629,64.69c-.041,2.098-1.637,1.198-2.629,1.315-.581-1.963 1.861-2.269 2.629-1.315z" fill-rule="evenodd"/>
 <path d="m165.887,66.005c.03,1.115-1.799,1.358-2.627.788-.498-2.287 2.469-2.619 2.627-.788z" fill-rule="evenodd"/>
 <path d="m173.251,64.69c1.015-.229 1.136.44 1.575.789-.347,1.539-2.538.627-1.575-.789z" fill-rule="evenodd"/>
 <path d="m101.742,65.479c1.134.269.854,1.95 2.629,1.578 .527,1.347-.181,2.018-1.051,2.628-.48-1.623-2.294-1.913-2.893-3.417 .619-.54.437-.379 1.315-.789z" fill-rule="evenodd"/>
 <path d="m99.376,68.37c-.805-.19-.773.454-1.577.263-1.338-2.742 3.219-3.943 1.577-.263z" fill-rule="evenodd"/>
 <path d="m93.33,66.005h1.313c.204.233.283.594.263,1.051 1.09.301 1.025-.553 1.841-.526 .592.475.619,1.328.262,2.104h-1.84c.111-.55-.18-.697-.263-1.052-.842.4-.926.083-1.84,0-.033-.649-.039-1.267.264-1.577z" fill-rule="evenodd"/>
 <path d="m114.887,66.267h1.84c.146.468.136,1.092.526,1.314-.624.724-1.068.104-1.84.789 .122-.561-.376-.501-.789-.525-.19-.805.453-.774.263-1.578z" fill-rule="evenodd"/>
 <path d="m119.356,66.267c.853.199 1.141.961 1.051,2.103-.378.147-.642.411-.788.789-.843-.209-1.188-.915-1.052-2.103 .246-.281.97-.082.789-.789z" fill-rule="evenodd"/>
 <path d="m158.527,68.37c-.897.478-1.263-.036-2.366,0-.294-.828-.023-.595 0-1.577 1.512-.618 2.482-.582 2.366,1.577z" fill-rule="evenodd"/>
 <path d="m111.996,66.793c.302.736.302,1.367 0,2.103-.909.208-1.11-.292-1.578-.526 .078-.974.376-1.726 1.578-1.577z" fill-rule="evenodd"/>
 <path d="m128.558,67.056c.302.736.302,1.366 0,2.103-1.048.083-1.943.014-2.366-.526-.284-1.597.935-1.693 2.366-1.577z" fill-rule="evenodd"/>
 <path d="m124.089,67.845c-.047.829-.185,1.568-1.052,1.577-1.99-.478-.315-3.247 1.052-1.577z" fill-rule="evenodd"/>
 <path d="m109.103,67.582c.951.396.748,1.363.526,2.366-.416.021-1.003-.126-1.052.263-1.105-.712-.175-2.189.526-2.629z" fill-rule="evenodd"/>
 <path d="m169.83 68.37c3.522-2.203 1.737 3.954 0 0z" fill-rule="evenodd"/>
 <path d="m146.434,68.633c.468,1.75-1.709,1.95-2.366,1.051-.043-1.823 1.689-1.787 2.366-1.051z" fill-rule="evenodd"/>
 <path d="m178.508,68.108c.524,2.628-2.815,1.671-2.104.262 .381-.407 1.346-.231 2.104-.262z" fill-rule="evenodd"/>
 <path d="m105.685,68.633c.317.297.477.75 1.315.526 .023.982.295.749 0,1.577h-1.84c.005-.62-.453-.773-.263-1.577 .527.089.823-.054.788-.526z" fill-rule="evenodd"/>
 <path d="m102.005,70.736c.472.033.554-.322 1.052-.263 .688.464.688,1.903 0,2.366-.776-.276-.915-1.188-1.315-1.84-.896.819-1.381-.367-2.366-.263-.246-1.816 2.987-2.269 2.629,0z" fill-rule="evenodd"/>
 <path d="m113.047,69.159c.917-.042 1.115.638 1.84.789-.183.781-.863,1.065-1.315,1.578-.857.069-1.266-.312-1.314-1.052-.042-.744.79-.613.789-1.315z" fill-rule="evenodd"/>
 <path d="m125.14,72.577h-1.841c-.151-.55-.651-.751-.525-1.578 .979-.995 2.573-.128 2.366,1.578z" fill-rule="evenodd"/>
 <path d="m122.248,71.525c.026,1.164-.472,1.806-1.84,1.577 .301-.827-.413-.639-.526-1.052 .114-1.257 1.673-1.23 2.366-.525z" fill-rule="evenodd"/>
 <path d="m224.777,75.994c.172,2.848.573,7.367-3.68,7.624 1.062,2.288.154,5.062-1.579,6.046-.988.028-1.198-.415-1.576,0-1.552-.552-1.349-2.857-1.84-4.468-.995.998-3.699,1.033-4.996.263 .295-1.872-1.382-1.772-1.84-2.892-1.044-5.273 5.374-7.793 8.149-4.468 1.183-.307 1.05-1.929 1.842-2.629 1.939-.385 3.933-1.012 5.52.524zm-6.046,4.995c1.579.43 4.073.469 4.206-1.314-.943-.49-.654-1.968-.789-2.629-2.214.238-3.1,1.806-3.417,3.943zm-2.105-.263c-.214-2.397-4.571-2.94-4.993.263 .329.723 1.54.564 1.84,1.315-.295.316-.749.476-.526,1.313 1.869.329 3.824-1.279 3.679-2.891zm1.84,6.31c.976.012.944-.985 1.579-1.313-.963-.002-.385-1.543-1.579-1.315-.4.478-.4,2.149 0,2.628z" fill-rule="evenodd"/>
 <path d="m51.529,99.392h.525v.526h-.525v-.526z" fill-rule="evenodd"/>
 <path d="m68.092,125.418c.823.054 1.93-.178 2.366.263v1.316c-1.291.108-1.002.271-2.104,0 .006-.621-.453-.774-.262-1.579z" fill-rule="evenodd"/>
 <path d="m66.514,128.047c-.544-.156-1.727.325-1.84-.263-.538.338-.277,1.477-1.052,1.579-1.357.216-1.159-1.121-1.841-1.579 .424-.364.833-.745 1.314-1.053 .658-.043.824.406 1.052.789-.013-2.189 3.7-1.892 2.367.527z" fill-rule="evenodd"/>
 <path d="m77.03,125.945c1.56.038 1.78,1.63 1.052,2.627-1.919.445-1.81-1.84-1.052-2.627z" fill-rule="evenodd"/>
 <path d="m70.195,127.785h2.366v1.579c-.664.344-1.595.37-2.103.261-.588-.112-.107-1.297-.263-1.84z" fill-rule="evenodd"/>
 <path d="m69.932,130.938c-1.538.406-2.409-.058-2.629-1.574 1.205-.32 2.918-.304 2.629,1.574z" fill-rule="evenodd"/>
 <path d="m58.365,129.364h1.84c-.145.582.501.372.525.787 .28.979-.985.415-.788,1.313-.746.047-.513-.888-1.577-.526-.025-.98-.295-.749 0-1.574z" fill-rule="evenodd"/>
 <path d="m73.35,129.364h2.103c.332,1.146.077,1.168-.263,2.101h-1.84c-.403-.835-.092-1.156 0-2.101z" fill-rule="evenodd"/>
 <path d="m47.323,130.938c.467.492.667-.212 1.577,0 1.429,1.464-.921,2.781-1.84,1.315-.108-.632.481-.57.263-1.315z" fill-rule="evenodd"/>
 <path d="m52.581,131.204c.891.361 1.984.926 1.314,2.101h-1.841c.217-.74-.37-.681-.262-1.313 .246-.282.97-.082.789-.788z" fill-rule="evenodd"/>
 <path d="m71.772,131.73c-.089.526.054.821.526.787-.035,1.793-1.462,1.709-2.366.787-.055-1.193.598-1.679 1.84-1.574z" fill-rule="evenodd"/>
 <path d="m64.148,133.304c-.146.645-.616.963-1.052,1.315-.77-.019-.977-.601-1.314-1.05 .156-1.6 1.898-1.476 2.366-.265z" fill-rule="evenodd"/>
 <path d="m58.89,132.78c-.002.698.1,1.5-.263,1.84-1.064.364-.831-.571-1.577-.526-.095-1.295.864-1.823 1.84-1.314z" fill-rule="evenodd"/>
 <path d="m66.514,133.304c1.356-.041 2.807-.176 2.893,1.053-.141,1.057-2.004.685-2.104,1.053-.586-.379-.985-.944-.789-2.106z" fill-rule="evenodd"/>
 <path d="m46.534,134.093c1.283-.229 1.735.368 2.366.79 .001,1.053-.663,1.439-1.84,1.313-.299-.576-.678-1.073-.526-2.103z" fill-rule="evenodd"/>
 <path d="m53.369,134.093c.247,1.053.711,1.564 0,2.367-.698-.178-1.249-.503-1.84-.79 .023-1.116.621-1.656 1.84-1.577z" fill-rule="evenodd"/>
 <path d="m124.614,134.357c.501.492.476-.156 1.314,0 .025.852 1.191.561.789,1.84-.339.363-1.142.261-1.84.264-.431-.636-.669-1.278-.263-2.104z" fill-rule="evenodd"/>
 <path d="m130.135,134.883c1.209.017 1.273,1.181 2.366,1.313-.262.351-.71.518-.788,1.053-1.146-.357-1.263.194-2.366-.526-.067-.941.789-.963.788-1.84z" fill-rule="evenodd"/>
 <path d="m44.694,137.776c-.536.077-.516.71-1.052.787-.656-.133-1.08-.496-1.578-.787-.43.53-1.071.855-2.103.787 .042-.304-.058-.466-.262-.526-.281-.979.652-.749.525-1.576h1.578v.789c.541-1.274 3.133-1.391 2.892.526z" fill-rule="evenodd"/>
 <path d="m57.839,139.353c-1.03-.024-.68-1.426-1.052-2.104 1.441-1.748 2.71,1.499 1.052,2.104z" fill-rule="evenodd"/>
 <path d="m122.248,137.25c.699.002 1.502-.099 1.841.261-.043.309.058.471.262.526-.164.801-.583,1.344-1.577,1.316-.232-.645-.788-.966-.526-2.103z" fill-rule="evenodd"/>
 <path d="m48.9 138.3c0.031 1.256-0.976 1.476-2.366 1.313-1.117-1.719 1.407-2.369 2.366-1.313z" fill-rule="evenodd"/>
 <path d="m133.816,138.037c.233.319 1.28,1.141 1.577.526 .57-.043.12.933.263,1.313-.692.274-1.613.316-2.629.266 .127-.83-.807-.597-.525-1.579 .652.038 1.275.049 1.314-.526z" fill-rule="evenodd"/>
 <path d="m53.896,139.353c-.209.489-.439.962-.526,1.576-1.454.103-.917-.424-2.103-.787 .066-1.973 1.545-1.53 2.629-.789z" fill-rule="evenodd"/>
 <path d="m37.07,139.353c.993.058 1.845.259 1.84,1.313-.113.588-.464.938-1.051,1.05-1.085.072-1.312-1.649-.789-2.363z" fill-rule="evenodd"/>
 <path d="m142.228,139.616c.503.924-.249,1.275-.525,2.101-1.046-.063-1.993-.263-1.841-2.101 .424-.394 1.318.226 2.366,0z" fill-rule="evenodd"/>
 <path d="m129.35 140.4c-0.134 1.181-0.815 1.814-2.366 1.579-1.078-1.896 1.203-2.7 2.366-1.579z" fill-rule="evenodd"/>
 <path d="m137.233,140.929c.809-.196.505.724 1.314.526 .211.911-.392,1.01-.262,1.84-1.439-.111-1.833.142-2.103-1.313 .095-.607 1.15-.253 1.051-1.053z" fill-rule="evenodd"/>
 <path d="m35.492,144.083c-.407-.381-.231-1.343-.262-2.101 2.339-1.143 2.786,2.366.262,2.101z" fill-rule="evenodd"/>
 <path d="m42.854,141.982c.005.618-.454.774-.263,1.577-.617.34-.588-.135-1.052.523-.908-.141-1.197-.904-1.051-2.101 1.303.028 1.291-.258 2.366.001z" fill-rule="evenodd"/>
 <path d="m45.22,141.716c1.451-.223 2.025.428 2.103,1.579-.451.742-1.034-.099-1.052.787-.594-.542-1.27-1.004-1.051-2.366z" fill-rule="evenodd"/>
 <path d="m54.684,141.716h1.84v1.579c-.741.309-1.116.052-1.84-.263v-1.316z" fill-rule="evenodd"/>
 <path d="m50.215,144.083c-.09.528.053.824.526.792-.22.656-.721,1.031-.79,1.84-1.026-.092-1.041-.149-1.577-1.053 .053-1.087.496-1.785 1.841-1.579z" fill-rule="evenodd"/>
 <path d="m144.857,144.083c-.006.621.453.774.262,1.579-.951.55-1.414.55-2.365,0-.234-1.461.731-1.722 2.103-1.579z" fill-rule="evenodd"/>
 <path d="m131.45,144.348c1.444-.218 2.171.282 2.628,1.051-.143.909-.906,1.195-2.103,1.05-.232-.642-.787-.963-.525-2.101z" fill-rule="evenodd"/>
 <path d="m138.547,144.875c1.14.342 1.809,1.051 1.314,2.364-1.253.203-1.732-.37-2.103-1.051-.041-.744.79-.612.789-1.313z" fill-rule="evenodd"/>
 <path d="m43.642,145.135c1.209.225 1.647.972 1.315,2.104h-1.84c.126-.828-.808-.595-.526-1.577 .466-.06 1.317.265 1.051-.527z" fill-rule="evenodd"/>
 <path d="m51.792,145.135h1.577c-.068.771.595.809.526,1.579-.852-.325-.201.85-1.051.524-.908-.143-1.197-.905-1.052-2.103z" fill-rule="evenodd"/>
 <path d="m35.755,145.925c-.133.656-.7.877-.789,1.576h-1.578c-1.09-1.877 1.236-2.729 2.367-1.576z" fill-rule="evenodd"/>
 <path d="m40.225,145.925c-.122.755-.304,1.448-1.052,1.576-2.294-.329-.299-3.343 1.052-1.576z" fill-rule="evenodd"/>
 <path d="m123.037,146.449c.189.805-.27.959-.263,1.579-.698-.004-1.502.099-1.841-.263-.526-1.613 1.254-1.906 2.104-1.316z" fill-rule="evenodd"/>
 <path d="m126.717,147.239c.851.374 1.566.888 1.314,2.366-.425-.431-1.1.235-2.103,0-.365-.161-.04-1.012-.526-1.051 .284-.595.988-.765 1.315-1.315z" fill-rule="evenodd"/>
 <path d="m143.017,147.501h2.103v1.579c-.823-.056-1.93.176-2.365-.266-.219-.741.37-.679.262-1.313z" fill-rule="evenodd"/>
 <path d="m33.389,148.289c.547.235 1.628-.081 2.103.792-.302,1.768-1.307,2.266-2.365,1.313-.202-.992.32-1.258.262-2.105z" fill-rule="evenodd"/>
 <path d="m43.379,148.289c.816.85.361,1.894-.525,2.366-1.099-.437-1.639-2.694.525-2.366z" fill-rule="evenodd"/>
 <path d="m139.599,148.289c.623.655.003,1.55 0,2.366-.853.154-1.223-.177-1.84-.261v-.789c.319-.734.943-1.16 1.84-1.316z" fill-rule="evenodd"/>
 <path d="m151.692,150.394c-1.003-.085-1.742-.088-1.577-1.84 1.672-.654 2.59.654 1.577,1.84z" fill-rule="evenodd"/>
 <path d="m53.369,148.815c.418,2.11-2.368,2.341-2.103.266 .637-.433 1.277-.672 2.103-.266z" fill-rule="evenodd"/>
 <path d="m147.486,148.554c1.149-.149 1.976.645 1.314,2.101-.697.311-1.548-.502-1.578,0-.376-.322-.498-.902-.525-1.574 .528.087.823-.056.789-.527z" fill-rule="evenodd"/>
 <path d="m49.163,150.655c-.644.233-.965.79-2.103.526-1.553-2.526 2.275-3.098 2.103-.526z" fill-rule="evenodd"/>
 <path d="m39.436,149.081c-.127.826.807.595.525,1.574-.256.009-.203.323-.262.526-1.536.398-1.525-.753-2.103-1.313 .409-.466.739-1.014 1.84-.787z" fill-rule="evenodd"/>
 <path d="m134.867,150.92c-.491.21-.963.438-1.578.526 .014-.805-.947-.633-.789-1.579 .761-.581 2.611-1.458 2.367,1.053z" fill-rule="evenodd"/>
 <path d="m124.089,149.868c.19.805-.454.774-.263,1.579-.699-.004-1.502.099-1.84-.266 .023-1.563.77-1.556 2.103-1.313z" fill-rule="evenodd"/>
 <path d="m144.857,151.181c.125.828-.375,1.029-.526,1.579-1.067.103-1.831-.099-1.84-1.053 .017-1.128 1.665-.787 2.366-.526z" fill-rule="evenodd"/>
 <path d="m42.591,151.447c.591.546 1.455.821 1.314,2.101-.746-.042-.513.891-1.578.526-.233-.642-.613-1.138-.525-2.103 .449.011.681-.195.789-.524z" fill-rule="evenodd"/>
 <path d="m126.717,151.447c.351.437 1.49.086 1.841.524v1.315c-.844.821-2.578.591-2.629-.789 .2-.413.834-.393.788-1.05z" fill-rule="evenodd"/>
 <path d="m120.145,153.811h-2.366c.191-.803-.454-.772-.262-1.577 1.607-.805 3.078-.484 2.628,1.577z" fill-rule="evenodd"/>
 <path d="m33.389,151.971c1.544-.144 2.67.135 2.629,1.576-.447-.096-.497.206-.526.526-1.264.388-1.097-.654-2.103-.526v-1.576z" fill-rule="evenodd"/>
 <path d="m138.285,152.234c2.939.941-1.296,4.553-1.052.787 .687.075 1.131-.094 1.052-.787z" fill-rule="evenodd"/>
 <path d="m152.74 153.29c0.029 1.168-0.834 1.442-2.103 1.313-1.043-1.806 1.238-2.734 2.103-1.313z" fill-rule="evenodd"/>
 <path d="m47.323,153.021h1.84c.291,1.432-.444,1.836-.788,2.632-.694-.535-1.274-1.181-1.052-2.632z" fill-rule="evenodd"/>
 <path d="m146.697,153.021h2.103c-.005.621.453.775.263,1.579-.961.107-1.409.539-1.841.526-.554-.551-.951-1.255-.525-2.105z" fill-rule="evenodd"/>
 <path d="m123.299,153.287c1.11.437 1.916.993 1.051,2.102-.697-.003-1.5.1-1.84-.262v-1.315c.528.089.823-.055.789-.525z" fill-rule="evenodd"/>
 <path d="m38.648,153.547h1.051c.946,1.083.231,2.709-1.314,1.841-.211-.912.391-1.011.263-1.841z" fill-rule="evenodd"/>
 <path d="m133.29,154.337c.597-.129.786,1.45 1.051.789 .945.708-.711,1.019-.525,1.84-.625-.516-1.828-.449-2.103-1.313-.028-1.521 1.365-.428 1.577-1.316z" fill-rule="evenodd"/>
 <path d="m142.754,154.862c.719.419 1.121-.129 1.84.526v1.052c-.584.206-1.025.553-1.84.526-.39-.879-.674-1.285 0-2.104z" fill-rule="evenodd"/>
 <path d="m36.019,155.388c.333.457.889.688.788,1.578-.255.007-.203.321-.262.526h-2.104c-.393-.614.089-1.134-.262-1.315 1.01-.93 1.371-.043 1.84-.789z" fill-rule="evenodd"/>
 <path d="m42.328,155.388h1.841c-.012.449.195.682.525.789-.308.394-.326,1.076-.789,1.315-1.129-.098-1.62-.833-1.577-2.104z" fill-rule="evenodd"/>
 <path d="m128.558,155.914c.307.743.051,1.117-.263,1.84h-1.841c-.666-1.517.333-2.076 2.104-1.84z" fill-rule="evenodd"/>
 <path d="m151.955,155.914c.576.907.418,1.536-.263,2.366-1.069.105-.809-1.118-1.577-1.313 .68-.283.614-1.314 1.84-1.053z" fill-rule="evenodd"/>
 <path d="m39.173,156.966c1.283-.23 1.735.368 2.366.787-.071,1.07-.935,1.344-2.103,1.316-.159-.63-.377-1.199-.263-2.103z" fill-rule="evenodd"/>
 <path d="m49.163,156.966c.742.073.724.368 1.578.787 .125.828-.375,1.029-.526,1.579-.693-.27-1.534-.394-1.84-1.053-.198-.898 1.067-.332.788-1.313z" fill-rule="evenodd"/>
 <path d="m119.356,157.228c-.211.913.392,1.012.263,1.842-.979.785-1.987-.156-2.366-.79 .131-1.066 1.189-1.497 2.103-1.052z" fill-rule="evenodd"/>
 <path d="m138.547,156.966c.192,1.047.192,1.058 0,2.104-1.449.221-2.184-.271-2.103-1.577 1.007.129.84-.915 2.103-.527z" fill-rule="evenodd"/>
 <path d="m123.299,157.228c.015.864.748,1.005.526,2.104-.994-.381-.505.724-1.315.526 .181-.708-.543-.509-.788-.789 .153-.986.23-2.049 1.577-1.841z" fill-rule="evenodd"/>
 <path d="m145.909,157.493c.784.18 1.609.316 1.84,1.051-.503.636-.946,1.333-1.84,1.577-.637-.692-.637-1.937 0-2.628z" fill-rule="evenodd"/>
 <path d="m46.009,158.543c-.043.306.058.469.263.526 .003.879-.666,1.087-1.051,1.576-1.261.296-.925-1.001-1.578-1.313 .352-.699 1.157-.945 2.366-.789z" fill-rule="evenodd"/>
 <path d="m133.82 159.33c-0.198 1.117-0.839 1.789-2.366 1.577-1.192-2.108 1.256-3.015 2.366-1.577z" fill-rule="evenodd"/>
 <path d="m36.282,159.07c.698.002 1.5-.101 1.84.263 .126.826-.375,1.027-.525,1.577-.634.106-.572-.481-1.314-.264-.025-.981-.297-.748-.001-1.576z" fill-rule="evenodd"/>
 <path d="m128.032,160.91c-.688.101-.735.843-1.84.524-.385-.578-.799-1.128-.79-2.102 1.329-.194 2.846-.375 2.63,1.578z" fill-rule="evenodd"/>
 <path d="m142.491,159.859c.449.848.704,1.566 0,2.366-1.045-.047-1.297-.316-2.103-1.053 .403-.735.763-1.514 2.103-1.313z" fill-rule="evenodd"/>
 <path d="m151.167,162.225c-1.144.18-1.455-.475-1.84-1.053 .208-2.321 2.998-.885 1.84,1.053z" fill-rule="evenodd"/>
 <path d="m43.379,160.91c-.193,1.405-1.577,1.833-2.628,1.051v-1.314c.642-.51 2.269-.321 2.628.263z" fill-rule="evenodd"/>
 <path d="m136.707,160.383c.851-.323.201.852 1.052.526 .196,1.072-.847.905-.525,2.104-.961-.043-1.409-.3-1.841,0-1.378-1.325.3-2.195 1.314-2.63z" fill-rule="evenodd"/>
 <path d="m119.356,161.434c-.295.672-.646,1.283-1.052,1.842-.705-.077-1.164-.383-1.84-1.051 .144-1.391 2.232-2.152 2.892-.791z" fill-rule="evenodd"/>
 <path d="m37.858,160.91h2.103c.125,1.089.001,1.928-1.052,1.84-.933-.031-1.057-.872-1.051-1.84z" fill-rule="evenodd"/>
 <path d="m45.745,160.91h1.578c-.231.845.682.546.789,1.051 .053.843-1.149.43-1.052,1.315-.7-.09-.921-.657-1.578-.789 .303-.311.299-.929.263-1.577z" fill-rule="evenodd"/>
 <path d="m146.171,163.013c-.724.983-2.032.346-2.365-.526 .351-1.622 2.346-1.002 2.365.526z" fill-rule="evenodd"/>
 <path d="m120.408,161.699h1.84c.303.736.303,1.365 0,2.102-1.336.023-1.498-1.131-1.84-2.102z" fill-rule="evenodd"/>
 <path d="m126.192,164.591c-.601-.363-1.641-.289-1.578-1.315 .463-2.334 3.668.276 1.578,1.315z" fill-rule="evenodd"/>
 <path d="m149.589,163.276c-.002.699.1,1.5-.262,1.84-.978-.182-.688-.126-1.841-.263-.33-1.644 1.197-1.935 2.103-1.577z" fill-rule="evenodd"/>
 <path d="m129.872,163.276c1.139-.263 1.459.293 2.103.524-.216,1.012-.698,1.756-2.103,1.578-.302-.735-.302-1.366 0-2.102z" fill-rule="evenodd"/>
 <path d="m140.914,164.591c.097,1.062-.872,1.053-1.052,1.84-1.063-.372-1.737-.883-1.314-2.104 1.179-.27 1.622-.784 2.366.264z" fill-rule="evenodd"/>
 <path d="m115.413,164.065c1.208-.158 2.012.09 2.365.788 .191,1.797-2.595,1.634-2.891.525-.131-.487.979-.502.526-1.313z" fill-rule="evenodd"/>
 <path d="m136.444,164.853c.288,1.163-.445,1.307-.525,2.103-.823-.054-1.93.178-2.366-.263-.346-.815.07-.749 0-1.84 1.302-.201 1.392.006 2.891,0z" fill-rule="evenodd"/>
 <path d="m141.965,165.378c.823.054 1.93-.177 2.366.264 .312,1.363-1.008,1.096-1.314,1.84-.413-.113-.225-.828-1.052-.526v-1.578z" fill-rule="evenodd"/>
 <path d="m124.089,165.642c1.21-.246 1.086.841 1.577,1.313-.368.597-1.09.837-1.577,1.315-.505-.547-1.242-.864-1.052-2.104 .465-.06 1.316.265 1.052-.524z" fill-rule="evenodd"/>
 <path d="m119.356,166.431c.951.395.748,1.361.525,2.366-1.448.221-2.091-.363-2.103-1.578 .976-.163.943-.048 1.578-.788z" fill-rule="evenodd"/>
 <path d="m129.872,167.219c-.157.894-.378,1.724-1.051,2.103-2.662-.152-.446-3.851 1.051-2.103z" fill-rule="evenodd"/>
 <path d="m133.553,169.322c-.679.936-2.209,1.365-2.892.264 .05-1.986 2.646-2.44 2.892-.264z" fill-rule="evenodd"/>
 <path d="m53.632,92.03c-1.907-3.594-3.361-7.895-3.154-12.88-3.434-.686-5.248-2.99-6.31-6.047-6.226-.4-10.75.984-14.986,3.154-1.054,1.247-1.88,1.77-2.891,2.893-1.439,1.597-3.223,5.369-3.944,8.149-.386,1.49-.344,3.045-.788,4.47-.189.607-.043.368-.525.261-.118,4.739-2.605,8.259-1.841,12.619 .288,1.643 1.575,2.935 1.051,4.997-.81.854-1.375,1.953-2.103,2.891-3.378.52-3.591-1.313-6.046-2.104-.807-1.998-1.8-3.808-3.418-4.993 .152-.855-.179-1.224-.263-1.842-2.175-2.907-3.927-6.236-4.731-10.516-1.379-1.114-1.337-2.901-1.841-4.732-.497-1.801-.952-2.569-1.314-5.258-.434-3.219-.93-8.265 0-12.093 .06-.244.185-.923.789-.789-.54-1.989.544-4.503 1.84-5.521 .825-2.505 2.417-4.245 3.681-6.309 1.711-.401 3.145-2.983 5.783-3.156 1.525-.099 4.342.871 5.259,2.103 3.073.018 6.565,3.11 9.464,2.629 .341-.508 1.167-.675 1.577-1.051 .245-.225.032-.821.263-1.052 .018-.017.55.244.79,0 .79-.806 1.383-2.022 2.365-2.892 .751-.665 1.563-.752 1.841-2.104 1.157.376 2.153-.995 2.891-1.84 2.522-.015 4.348-1.425 6.835-2.103-.094-4.562 2.479-6.459 3.68-9.727 3.081-1.478 4.023-5.091 7.624-6.047 .531-.345.89-.862 1.053-1.577 1.039.139 2.275-.896 3.417-1.577 .538-.322.688-.038 1.051-.79 1.861.147 4.777-1.335 5.784-1.84 .597.191 2.051-.474 1.84.525 .872-1.055 3.747-.337 4.469-.262 1.508-.941 7.398-.772 11.042,0 2.995.634 5.532,2.148 7.362,3.155 1.681.279 2.302-.503 3.154-1.052 .148-1.836-.093-4.556 0-7.099 .208-1.105 1.381-1.248 1.052-2.892 .717.191.528-.523 1.051-.526 .547-3.309 2.921-4.79 4.206-7.361 1.49-.263 2.053-1.453 2.892-2.366 1.453-.476 2.617-1.24 3.418-2.366 1.454-.291 1.825-.219 2.366-1.577 3.388-.994 5.956-2.807 9.99-3.155 .759-.906 2.658-.673 3.417-1.578 2.325-.061 3.644-.397 6.573-.263 .583.146.374-.501.788-.525 2.604-.072 6.098.103 7.887,0 2.139.792 2.926,1.314 5.784,1.315 2.156,1.875 5.994,2.066 7.098,4.995 .375-.676 1.81-.293 2.104-1.052 .544.156 1.728-.325 1.841.263 .366-1.083 1.948-.295 2.892-.526 .291-.07.176-.494.525-.525 1.863-.169 4.033.226 5.783,0 .428-.056.965-.472 1.316-.526 .451-.071.545.523.523.526 .107-.017 1.232-1.218 1.843-.526 .789.899-.349-.065.524,0 .851.063-.24.375 1.052,0 .706-.206 1.836.606 2.893.788 1.938.336 4.283-.304 6.31,0 .566.085.366.392.789.526 .404.129 1.239-.118 1.577,0 .092.032.011.459.263.526 .154.041.381-.064.526,0 1.271.553 3.911.79 6.047,1.05 .056.008.025.845.787.263 1.356,1.624 3.044,2.915 5.785,3.156 3.601,3.585 8.703,5.668 8.938,12.619 .971.955 3.552.303 4.732,1.051 2.19-1.577 2.995-4.539 4.732-6.572 3.41-.846 5.965-1.63 9.463-.789 .595-.895 2.605-.374 2.891-1.578 2.781-.119 5.399.013 9.729.789-.41,1.109 1.459-.058 1.051,1.052 2.433.021 3.554,1.353 5.783,1.577 1.502,1.917 3.765,3.071 4.732,5.521 .8.251.603,1.499 1.84,1.315-.176,1.226.415,1.689.526,2.628 .992,1.147 2.564,2.377 5.259,2.629 1.549.146 3.671.189 4.206-.525 .895.105.432.809 1.051,0 .652-.04 1.276-.049 1.315.525 1.603-.889 4.005-.445 6.307-.525 .428-.015.92-.231 1.316-.263 2.976-.24 5.282.96 7.099,1.052 1.38,1.256 3.04,2.438 4.206,4.206 .331.632.338,1.589.789,2.103h1.577c2.043,2.282 6.168,3.779 9.463,3.943 2.702,2.062 6.373,3.853 9.465,4.732 2.361,2.634 5.523,4.466 8.412,6.572 .852,3.179 3.002,3.879 3.945,6.573 .787.262 1.093,1.008 1.84,1.314 .286,1.729 1.108,2.92 1.576,4.469 .955,1.062 2.174,1.857 2.367,3.68-.309.042-.223.479-.264.789-1.378.591-3.847,1.411-4.993,0h-1.579c-1.966-1.285-5.126-.211-5.785-1.314-.938.71-.424.123-1.313-.263-1.669-.724-4.416-.372-6.046-.789-.67-.171-.364-.555-.787-.788-.326-.178-.574.102-.792,0-.877-.414-2.264-.439-4.468-.79-.055-.009-.491-.521-.525-.525-1.229-.175-2.818-.205-4.207-.263-3.106-.13-5.147.855-7.886,0-.31.813-.661-.041-1.053.526-3.299-.462-7.106-1.037-10.778-.263-1.425.3-2.815,1.282-4.206,1.84-1.063.428-2.636.729-3.419,1.052-.699.29-1.04,1.078-2.366,1.052-.471,1.022.582,1.785.266,3.417-1.273,2.321-3.812,3.376-6.838,3.943-.139,2.665-.817,4.791-1.313,7.099 .873-.119.311.156 1.579-.263 .034.648.038,1.267-.266,1.578-.924-.213-.941-.049-1.313-1.052-2.082,4.279-2.754,9.346-4.732,13.407-.552,1.134-.967,2.343-1.577,3.156-1.11,1.479-3.356,2.171-2.366,4.469 .396.869.645-.548 1.316-.263-.643,3.04-1.618,5.744-4.207,6.835-1.022,5.901-3.579,10.268-5.785,14.985-.83-.753-.748,1.001-1.578,1.053-1.277,3.188-4.305,4.629-4.73,8.673-1.104.239-2.111,2.066-3.156,3.156 .467,3.096-1.343,3.913-2.101,5.782-3.764.483-6.102,4.146-9.204,2.366-.562.312-1.468.285-1.84.79-4.955-.86-6.555,3.229-10.252,2.89-.368-.595-1.065-.861-1.313-1.574-1.759,1.703-4.904,3.094-7.625,2.627-.638-.108-.668-.59-1.313-.526-1.453.15-2.621,1.588-4.207,1.84-1.625.262-2.588-.218-4.206-.787-2.028,1.712-7.406,2.332-9.203,0-3.771.841-5.636,1.425-9.2-.263-1.987.273-4.291,1.846-5.784,3.417 .582,7.68-4.694,9.503-8.149,13.145-2.491.599-5.084,1.957-7.624,2.893-.854.314-1.48.304-2.366.526-.365.09-.687.453-1.051.526-1.697.333-3.26-.018-4.732.787-1.261-.244-2.654-.235-3.943,0-.252.047-.831.514-1.051.526-.671.036-1.286-.533-1.841-.526-.932.013-1.654.543-2.367.526-.469-.013-.982-.476-1.577-.526-.649-.056-3,.07-3.154,0-1.292-.586-4.146-1.378-6.047-1.577-1.131-1.294-2.769-1.542-3.155-3.155-.707-2.953 2.064-5.721 2.892-7.887-.899-1.142-1.334-2.972-.525-4.469-.863-1.153-1.123-2.907-2.367-3.68-4.458.699-7.813,3.305-12.093,5.521-.061,3.706-3.663,3.873-5.257,6.046-1.946.129-2.46,1.271-3.943,1.313s-3.114-1.258-4.733.264c-.01.866-.444,1.308-.263,2.364-1.14.877-2.773,1.258-3.943,2.105-1.257-.559-2.772.586-3.944-.79-2.353,1.538-7.579-.199-9.464,0-.788.084-1.187.512-1.84.79-.231.098-.681-.152-1.052,0-.388.158-.476.723-.79.787-2.866.586-5.586-2.272-9.99-1.313-2.106-1.721-4.751-.582-8.149-2.104-1.687-.755-4.505-.025-6.309-.789-.685-.289-1.336-.938-2.103-1.314-2.093-1.026-3.94-1.641-4.996-3.944-1.192.077-.702-.486-1.84-.788-.758-1.887-2.468-3.829-2.893-6.572-.722-4.67 1.114-9.304 2.366-11.831 .05-.297.265-.146.263,0 .637-.239.697-1.057.789-1.84 1.814-.556 2.186-2.674 3.418-3.942 .561-.576 1.582-1.096 2.366-1.841 .371-.353.688-1.012 1.051-1.315 .483-.402 1.366-.377 1.84-.787 .767-.668 1.125-1.755 1.841-2.366 .525-.449 1.579-.12 1.577-1.053 2.775-.693 6.175-2.729 8.675-3.68 2.759-1.046 8.417-.946 8.939-4.47 .286-1.928-1.466-4.289-2.367-6.835-.384-1.087-.405-2.488-.788-3.681-.375-1.163-.52-1.799-.789-3.68-.473-3.303-1.593-5.566-1.051-8.938-1.096-1.418-3.796-3.88-1.318-5.78zm92.014-87.281c-1.525-.491-2.966-1.924-4.732-2.365-1.388-.346-2.636.267-3.68,0-.052-.014.053-.501 0-.526-.219-.104-.525.263-.526.263-.229-.033-.237-.521-.263-.526-.487-.086-1.581.29-2.628.263-1.493-.038-3.051-.583-4.207-.263-.16.045-.222.496-.526.526-3.116.303-6.48-.424-8.15,1.578-.812-.345-1.692.263-2.365.788-7.49,1.376-15.008,6.693-18.929,13.934 .03,1.283-.141,2.771.263,3.681 .904-.536 1.337-.174 1.84-.79 .082.621.913.49.789,1.315-.119.757-.93.822-.789,1.84 1.257-.118 1.109-.118 2.366,0-.035.648-.04,1.267.263,1.578 1.715-.357.32-2.215 1.84-2.628 .701.438.857,1.42 1.84,1.577 .049-.855.458-.19 1.315-.526 .211-.912-.392-1.01-.263-1.84 .995.381.505-.722 1.314-.525 .672.029.522.88.526,1.577 3.295-.319 6.246-1.561 9.989-1.051 .478-.897-.035-1.264 0-2.366 .826-.051.713-1.04 1.841-.789 .553.585-.277,1.268 0,2.366 2.224.021 2.895.103 4.995,0 .149-2.367 2.146-3.616 3.155-4.732 .501-.554.639-1.608 1.051-2.103 .515-.615 1.333-1.185 1.841-1.578 1.994-1.54 4.546-2.252 6.572-3.943 2.508.056 3.124-1.783 5.521-1.84 .026-1.081.051-2.158-.263-2.895zm22.083.79c-.927.913-2.039-.043-2.63,0-.032.002-.342.483-.526.525-1.689.387-4.39-.299-6.309,0-.337.052-.249.418-.525.526-1.292.505-2.682-.004-3.944.262-.532.113-.159.548-.788.79-.587.226-2.031.229-2.366.789-.809.196-.505-.722-1.314-.525-.692.982-2.059.542-2.893.789-.357.104-.261.632-.788.788-.061.018-.693-.305-.789-.263-.649.287-1.442,1.245-2.366,1.578-.579.208-1.357.443-2.103.263 .068.858-.818.759-1.052,1.314-1.684-.32-2.44,2.432-4.732,2.365-1.182,2.06-2.781,3.705-2.629,7.099 5.622.354 8.902-.028 12.62,2.366 .063-.678.453.361 1.052,0 .456-.63.799-2.362 1.84-1.578 .102-.889-1.164-.414-.789-1.577 .127-.311.28-.597.525-.789 .906-.123 1.939-.394 2.104.789-.252.628-1.005,1.546-1.578,1.052 .259,1.051.259,1.578 0,2.628 .617.26 1.291.461 2.103.526 .349-.792.42-1.859 1.84-1.578 .455.922-.249,1.708-.525,2.629 1.124,1.327 2.496-.47 2.892.262 .381-.994-.722-.504-.525-1.313 .672-.381.737-1.366 2.103-1.052-.006.62.453.773.264,1.577-1.036.018-1.273.832-1.578,1.578-.095,1.322.771,1.682 1.84,1.84-.501-1.564 1.125-2.366 2.103-1.577 .472,1.522-.894,1.208-.788,2.366 2.094,1.509 3.796,1.799 5.521,3.68 4.217-1.604 5.825-3.716 9.728-5.784 .458-.02.817.059 1.051.263 .432-1.321 1.863-1.643 3.682-1.578 2.195-2.331 5.97-1.566 8.938-2.365 3.864-1.042 8.19-1.197 12.093-.788 .814-1.821 1.232-3.883.787-6.311-2.7-2.292-4.951-5.04-8.938-6.046-.976-1.176-2.486-2.214-3.941-2.629-.629-.179-1.54.083-2.104,0-.278-.041-.657-.473-1.051-.525-.485-.065-1.191.121-1.577,0-.491-.154-.838-.894-1.315-1.053-1.234-.407-2.51-.303-3.68-.525-1.252,1.992-3.757,2.728-5.259,4.469 .421-1.035-1.136-.091-1.051-.789-.058-1.433.18-3.161-.263-4.206-1.2-.211-1.976.748-2.37-.262zm4.469,1.839c.048-.389.636-.241 1.053-.263v-1.051c-.685-.047-1.865.738-1.053,1.314zm73.084,23.399c.4-1.01 1.707-2.491.789-3.944-.058.204-.006.519-.263.526-.237-1.866-1.459-2.748-1.84-4.469-1.229-.437-2.197-1.133-2.628-2.366-1.951-.176-3.718-2.236-6.048-1.84-.909-1.586-2.623-1.178-3.943-1.314-.381-.04-.438-.463-.789-.525-1.854-.334-3.757.694-6.31.525-1.7,1.801-4.711.397-7.359.789-.76.112-1.179.979-2.105.526-.723,1.205-1.36,2.495-1.84,3.943 .355.959 1.306,1.325 1.053,2.893 2.152.826 3.299,2.659 6.046,2.891 2.51,2.486 4.613,5.379 6.836,8.15h1.576c.636,1.73 1.304,3.43 2.104,4.995 .03,3.954 1.594,7.04 2.893,8.938 5.27-1.526 8.403-4.087 13.669-4.732 .631-.729 2.4-1.317 3.419-1.578 2.869-.735 7.149-.258 8.151-1.577 1.249.304 3.331-.646 5.52-.264 .415-.023.205-.67.787-.525 6.191.162 7.891-.095 12.095.789 .072-1.215 1.174.229 1.315-.789 1.168.464 2.463-.083 3.417-1.052-.28-.509-1.211-.367-1.577-.79-2.156-1.845-2.285-4.778-3.945-6.309-1.903-1.758-5.592-2.39-8.412-2.366-1.563.013-3.205.699-4.732.263-.415.023-.205.671-.787.526-.828.507-1.112-.474-1.579-.526 .032.003-.235.52-.261.526-.334.069-.268-.582-.526-.526-.253.055-.21.619-.789.526-.336-.056-.478-.542-.79-.526 .025-.001-.178.474-.526.526-1.746.259-6.525.077-7.359-.526-.648,1.077-2.005.336-3.419.526-2.645.355-5.28,1.748-6.833.788-.028.673-.15,1.253-.526,1.577-1.931-.395-2.63,2.596-5.259,2.366-.779-2.946 3.658-3.555 4.995-4.469 .415.024.208.67.79.526 .279-2.083 2.896-1.832 4.99-2.102zm-129.607,40.748c1.394-.899 1.919-.331 2.893,0-.204.935-1.288.991-1.578,1.84 3.159-.004 5.363.945 8.15,1.314 .48-.605 1.683-1.479 2.365-1.052-.512-.714-1.544-.909-1.577-2.103 .827.301.639-.413 1.052-.526 .909-.209 1.109.292 1.578.526-.146-1.197.143-1.959 1.051-2.104 .858-.068.76.818 1.314,1.052 .966-.344 1.367-.47 1.578-1.052-.025-.851-1.191-.561-.788-1.84 .994.381.504-.722 1.313-.525 1.017.293 1.038.799 1.841.789 .262-1.086.789-.383 1.577-1.052 .067-1.119-1.124-.979-1.314-1.84 .429-.535.952-.976 1.84-1.053 .412.378.207,1.372 1.052,1.315 1.451-.477 1.524-2.331 3.417-2.366 .547-1.638 3.187-1.384 3.68-3.68-.107-.507-1.019-.208-.789-1.052 .241-.461.489-.914 1.315-.79 .618.083.156,1.247 1.051,1.053 3.03-.234 5.869-2.769 9.464-3.418 .604-.109 2.123.243 2.629,0 .203-.098-.083-.464.263-.526 1.973-.35 3.816-.545 5.52-.264 .317-.296.478-.75 1.313-.525 1.085-2.411 4.258-7.552.792-9.727-.539-3.144-2.501-4.862-3.945-7.099-1.159.117-1.076.473-1.84.526-1.074-1.103.848-2.017.264-2.629-.592-.945-1.887-1.206-2.104-1.84-3.439-.431-5.551-3.545-8.15-3.944 .217-.873-.539-.896-.788-1.051-1.114-.692-3.107-1.62-3.418-1.052-.194-1.288-1.755-.667-2.892-1.052-1.217-.412-2.208-1.383-3.155-1.577-1.542-.315-3.125.325-4.468,0-2.898-.703-5.667-1.137-9.728-.788-.347.002-.24.46-.525.525-3.706-.956-8.239,1.298-10.516.263-.042.309.045.746-.263.789-1.096-.441-3.82.523-5.521,1.051 .705.791 1.833,2.741 2.891,1.578 .173.703.966.787 1.315,1.313-.096-.797.857-.545 1.315-.789 .619.386.489.556 1.314.263 1.938,1.831 3.848,3.688 5.783,5.521 .363.338.26,1.142.263,1.84 1.24,2.441 1.824,5.537 2.104,8.938-.832.362-.878.058-1.84,0-1.06-2.884-3.084-4.803-5.521-6.309-.026-1.201.263-2.717-.789-2.893-.042.311.045.747-.263.79-2.199-1.481-5.292-2.07-6.309-4.732 1.532-.409 2.901,1.005 3.417,0 .94,3.468 5.92,1.392 5.784,6.046 1.29-.063 1.666.79 2.366,1.315 .637-3.202-2.104-5.24-3.943-6.834 .041-.655-.413-.814-.526-1.314-2.232-.098-2.175-.554-3.681-1.578 .103,1.065-1.638.29-2.365.526-.097-1.292-1.074-1.298-2.103-1.052-.084-.617-.416-.987-.263-1.841-3.238-.721-4.342,2.373-8.413,2.103-1.611,1.898-6.03,2.544-7.624,5.259-.646-.651-.588.746-1.577.525-1.854,3.579-6.026,4.84-7.887,8.413-.281.982.652.749.526,1.577-.49,1.319-1.558.559-2.366,1.315 .625,1.678.682,2.953-1.578,2.892-.427.933-.348,2.512.263,3.154-.21.842-1.046,1.057-1.314,1.841 .118,1.314 1.215,1.404.526,2.892 1.153.773 2.33,1.525 3.68,2.103 .899-.153 1.224-.879 2.366-.789-.108.633.48.571.263,1.313-.029.498-.87.183-.789.79 .512.539.819,1.283 1.84,1.315-.104-1.068.097-1.833 1.052-1.841 .826.05 1.265.489 1.314,1.315-.143.908-1.642.461-1.841,1.314 .842.648 1.549,1.432 2.104,2.366 .209-.58.527-1.05 1.313-1.051 1.229,1.026 1.901-.916 3.417.262 .062,1.115-.545,1.558-1.314,1.841-.343-.076-.812-.487-1.313-1.052 .197.898-1.069.334-.79,1.315 1.592,1.878 3.581,4.284 5.784,4.731 .631-.245.697-1.057 1.84-.789 .59,3.801 4.458,3.173 7.624,3.943 .244-.458-.008-1.411.79-1.313 1.096.13 1.126,1.327 1.577,2.103 1.382.155 1.921-.534 2.893-.79 .151-.462-.317-1.544.262-1.577 .858-.068 1.266.312 1.314,1.052 .948-.912 4.296.811 3.944-.526-.1.517-.321-.799-.788-1.31zm50.212-33.651c1.156,1.125 1.464,3.096 2.893,3.944 .952-1.197-.06-1.548 0-3.155 .307-.221.706-.348 1.316-.263-.002.263.212.312.263.525-.302,1.392-.12,1.949 0,3.417-.688-.074-1.132.097-1.053.79 .537.515 1.646.458 1.84,1.314-.838,1.01-.933,2.601-.526,4.206 .754-.051 1.436-.032 1.316.79v.788c-.621.338-.49-.034-1.316.263v3.155c1.539.567 3.591,1.596 5.259.525 .927,1.354 3.347,1.211 5.259,1.578-.325.851.852.201.526,1.052 4.102.879 7.689,1.834 11.04,3.154 .521-.003.334-.717 1.053-.526 3.012.908 6.951.653 10.516.263-.08-1.132-.02-2.121 1.05-2.103 .253.8.533,1.573.792,2.366 1.6-.113 2.972-.296 4.73-.788-.206-1.038-1.098-2.179.526-2.366 .058.204.22.306.523.263v1.577c2.427.103 3.077-.153 3.683-1.577 1.062-.107 1.56.121 2.89.262 .856-1.337 2.602-.973 3.683-1.577 .505-.656-.4-1.081.263-1.578 1.47.13 2.555.857 3.419.264v-1.84c.681.18 1.313-1.041 1.575-1.841 1.276-3.867.126-6.813-.262-10.779-.812-.59-1.513-1.291-2.104-2.103-1.145-2.708-3.261-4.449-4.73-6.835-1.224.443-1.592-1.556-3.417-1.313-.672-1.679-2.379-.893-3.155-2.629-1.663.105-2.808-1.284-4.47-1.577-.815-.145-1.934.404-2.893.262-.89-.131-1.596-.706-2.366-.788-3.491-.374-6.611.269-11.039,0 .832,1.502 1.932,1.69 3.68,1.84 1.022,2.219 3.953,2.531 6.309,3.418 .841,1.525 1.671,3.062 2.104,4.996-.496.029-.184.869-.789.788-.484-.48-.889-1.04-1.577-1.314-.496.029-.185.87-.787.788-1.913-1.154-4.45-1.685-5.785-3.417-1.412.259-1.802-.505-2.366-.79-.316-.159-.893.09-1.053,0-.103-.058-.462-.544-.787-.789-.341-.255-.544-.642-.79-.788-1.251-.75-3.811-.136-3.68-2.366 1.31-.372 2.484-.4 3.417.263 .066.046-.068.496 0,.525 .275.114.805-.157 1.053,0 .697.439 1.035.956 1.84,1.315 1.198.536 1.827.65 2.629,1.051 1.166.583 2.815,1.748 3.417,2.628 1.479-.25 2.19.266 2.893.79-.702-4.223-5.435-1.917-7.099-5.521-2.046-.239-4.407-.945-3.68-3.154-2.221-.065-4.198.11-5.521.525-1.508.474-3.491.749-4.471,1.052-.291.091-1.047-.333-1.313-.263-.371.099-.193.584-.788.79-2.045.704-5.69,1.257-6.837,2.629 .774.613 1.231,1.137.789,2.365 1.132-.343 1.033.544 1.315,1.051-.479.573-1.626.479-2.104,1.052-.167-.601-.522-1.585 0-2.103-1.04-.099-1.55-.727-1.577-1.84-.83.31-1.134,1.144-1.84,1.578 .575.976.338,1.202.263,2.628 1.532-.043 1.053,2.019.264,2.366-.298-.404-.756-.647-1.051-1.052-.192-.804.453-.773.261-1.578-.451.015-.674-.202-.787-.525-1.151.259-2.557,1.642-2.105,2.629 .116-.588 1.297-.107 1.841-.263-.059.497.297.58.265,1.052-.18.522-.8.601-1.053,1.051-.794-.337-1.319-.645-1.584-.527zm-89.646,8.15c.181.582 1.309-.709 1.578-1.315 .286-.646 1.577-2.199 1.84-3.417 .966-.101 1.178-.769 1.315-1.052 1.638-1.254 3.09-4.97 6.046-5.784 .179-.961.367-1.912.263-3.155-.476-.869-1.822-.646-2.103-.789-.182-.093-.214-.679-.525-.788-1.544-.54-3.224-.402-4.732-.526-.296-.023-1.674.071-1.84,0-.2-.085.094-.494-.263-.525-3.662-.323-7.366.908-12.356,1.84-.684,1.858-4.023,1.061-4.732,2.892 2.724.259 2.242,2.682-.525,2.103-.027-.741-.991-1.117-.263-1.84-1.73.111-2.286,1.394-3.418,2.103 .287.726.523,2.268-.262,2.629-.759-.118-.622-1.132-1.314-1.314-.603.625-1.245,1.208-2.103,1.578 .229.82 1.012,2.041 0,2.628-.629-.795-1.346-.534-1.841.263 .272,1.569.639,3.042 1.315,4.206 .838.226.813-.414 1.314-.525 .266.523.657.92 1.052,1.314-.739-.038-.758.644-.789,1.314 1.098.135 1.781-.146 2.366-.525 .151-.462-.319-1.545.262-1.578 1.251-.287 1.073.854 1.051,1.84 .455.098 1.626.795 1.841.263-1.063.051-.958-1.833-.263-2.103 .884-.183.861.54 1.314.789 .272,1.206-1.43,1.226-.263,1.841 .758-.074 2.213.889 3.943,1.315 .18-.785 1.047-.882 2.103-.79 .416,3.14 3.302,2.191 4.996,3.943 .66-.391.995-1.108 1.314-1.84h-1.578c.006-.62-.453-.773-.263-1.577 .995.38.505-.723 1.315-.526 .729.375.497,1.709.788,1.84 1.371-1.689 2.752-2.1 3.417-4.732zm237.397,15.248c-2.587-1.972-4.356-4.76-5.785-7.887-3.277-1.542-5.319-4.319-8.412-6.046-1.254-.3-1.766-.695-2.893-1.315-.488-.269-1.145-.586-1.577-.789-4.02-1.881-9.853-2.074-13.935-2.103-1.583,1.138-3.633.688-6.046,1.051-.561.084-1.022.442-1.579.526-1.242.188-2.514.006-3.68.264-1.679.371-3.295,1.589-4.993,2.103-1.258.379-2.449.215-3.419.788-.231.137-.475.66-.787.789-.634.261-1.434-.033-2.105.263-.066.03.056.464 0,.526-.103.119-.642-.078-.787,0-.629.335-.745.396-1.579,1.051-.916.718-1.953,1.206-2.891,1.84-1.337.904-2.394,2.156-3.682,2.892-1.091,3.027-3.812,4.425-5.52,6.835-.176,2.028-1.425,4.045-.787,6.047 1.651.54 4.769.432 5.782-.526 .614.611 1.477.978 2.891.789 2.208-2.23 6.563-4.63 10.778-3.155 1.998-1.076 4.129-2.193 6.838-2.366 4.262-.273 12.952-.153 15.246.526-.048-.586.28-.464.789-.526 3.605-.437 6.29.419 8.414.79 1.145.2 2.346-.016 3.415.262 2.18.566 4.125,2.151 7.099,1.578 1.658,1.164 1.896.542 4.206,1.051 .045-.744.483-1.095.526-1.84-1.797-1.279-4.779-1.046-5.259-4.469 .239-.464.591-.814 1.053-1.051 2.533-.282 3.306.5 4.995.525 .64,1.727 2.544,2.187 2.366,4.732-.155.982-1.694.585-1.315,2.103 1.763,1.103 2.993,1.678 5.521,1.578-.503-2.739-2.351-4.131-2.888-6.836zm-52.056-17.351c-.8,1.328-3.195.761-4.732,1.052-.401.076-.695.477-1.05.525-2.181.298-3.929.262-5.785.789-.325.093-.244.437-.526.526-.877.282-2.066.06-2.891.526-.194.11.041.419-.263.525-1.288.446-2.781.638-4.206.789-.909.808-1.789,1.48-3.945,1.578-1.078,1.797-3.18,1.188-4.994,2.892-1.125-.194-2.453.747-2.893,1.051-.344.241-1.086.141-1.313.264-.89.484-1.375,1.213-2.103,1.578-.986.493-2.014.312-3.417.789-.521.176-.984.823-1.579,1.051-.717.275-1.63.252-2.366.526-.624.232-1.155.804-1.84,1.05-.714.259-1.57.021-2.103.263-.379.172-.383.676-.79.79-.983.275-2.526-.025-3.942.262-1.771,1.585-7.009.108-8.413,1.314-.252-1.306-1.405-.001-1.84,0 .02,0-.387-.489-.526-.525-.852-.227-.541.706-1.576.525-.205-.058-.307-.22-.264-.525-1.005.655-.597.146-1.576,0-1.656-.249-3.295.142-4.732,0-1.044-.104-2.326-.581-3.419-1.052-.147-.064-.39-.479-.526-.526-2.559-.887-5.188-.158-6.834-2.103-.363-.012-.577.124-.789.263-.052-.755-1.353-.83-1.577-.79-.353.064-.146-.496-.263-.525-.721-.177-1.765.104-2.63,0-1.459-.177-2.918-.875-4.206-1.052-2.776-.38-4.754.088-7.886,0 .088,1.765 1.08,1.009 2.627,1.314 1.31,1.233 3.905,1.18 4.996,2.628 .976-.186 1.127.449 2.103.263 .392.749.938,1.341 2.105,1.315 1.924,2.019 5.023,2.861 6.308,5.521 1.854.074 1.948,1.908 3.944,1.84 .941,1.949 2.851,2.932 4.468,4.206 .503,2.479 3.205,2.756 3.945,4.996 3.168,2.177 5.16,5.53 7.886,8.149 2.931,1.078 5.207,3.68 8.412,5.259 .355.176.95-.158 1.313,0 1.104.475 1.744,1.985 3.158,1.84 .847,1.866 3.917,1.515 4.467,3.68 1.885.679 4.262.172 5.259-.526 .629-.438 1.742-.717 2.104-1.05 1.247-1.147 1.312-3.147 2.103-4.996 .456-1.065 1.532-1.489 1.053-3.154 .839-.739.997-2.157 1.84-2.892-.263-1.752.708-2.27.788-3.681 .265-.001.312.213.525.263 .989-5.408 3.986-8.808 5.521-13.67 .744.042.611-.791 1.315-.789 .595-2.034 2.129-3.128 2.63-5.258 1.57-.794 2.366-2.365 3.153-3.943 .715.717.654-.68 1.579-.526 3.606-6.11 9.302-8.468 16.298-11.042 .19-.803-.27-.958-.263-1.577-1.159.032-1.077.364-1.842,0zm-166.938,29.97c-1.591-2.226-3.722-4.651-5.52-6.572-1.756-1.874-3.585-4.671-5.521-6.046-.745-.529-1.911-.18-2.104-1.315-.809.184-.505.184-1.314,0-1.738-1.871-4.397-4.17-7.099-4.206-.706-1.748-3.701-1.207-4.469-2.893-.828.295-.595.024-1.577,0-1.67-1.715-5.68-1.368-7.624-3.153-2.946.07-7.087-.476-9.465-.263-2.425.216-4.424,1.417-7.361,1.577-.667.871-2.033,1.164-3.155,1.051-.883,1.225-2.569,1.351-3.681,2.103-2.162,1.465-3.374,3.493-4.995,5.258-.748.815-1.501,1.687-2.629,2.104-1.875,3.898-4.269,7.684-4.995,12.618-.366,2.484-.714,3.832-1.052,5.784 2.419.972 2.615-2.198 3.68-3.418 2.976-1.85 5.776-3.99 9.465-4.732 .966-.193 1.906.191 2.892,0 .528-.102.475-.5 1.051-.525 2.033-.091 3.956.352 6.31.263 2.718-3.982 6.706,2.963 11.042.525 4.211.083 8.083.505 11.042,1.84 2.722-1.503 5.654-1.135 8.15-1.313v.789c2.703.23 3.523,1.365 4.995,2.366 2.208-.073 4.642-1.457 7.361-.79 .43.106.21.462.789.526 1.194.131 2.724-.214 3.943,0 2.125.372 3.412,1.251 4.206,0-.257-1.55-1.112-1.469-2.365-1.578zm88.333-4.47c-1.488-.897-1.736-1.19-2.629-2.103-.674-.688-1.254-.651-1.315-1.577-1.814-.903-3.564-1.868-4.73-3.418-3.186-.516-4.012-2.44-7.623-2.629-1.953-1.866-6.861-1.359-9.203-1.84-.015-.161-.04-.311-.263-.263-2.467,1.408-3.054.728-5.521,1.315-1.05,1.399-3.706,1.705-4.995,2.103-.365.161-.04,1.012-.526,1.051-1.292.46-1.84,1.665-3.417,1.84-.515.977-1.131,1.85-2.366,2.104-1.413,2.618-4.027,4.034-3.944,8.149 1.302.264 1.803.068 3.154.526 3.679-1.574 9.031.146 12.093.789 2.543-3.805 10.935-1.522 15.248-1.578 1.96-2.397 5.465-.536 8.938-.788 .244-1.033-.913-.664-.526-1.84 .355-.359 1.836-.501 1.841.263 .381.994-.722.504-.524,1.314 2.562,1.058 3.964-.644 5.521-.525 .516-1.412 2.075-.739 2.628-1.578-.309-.675-1.229-.945-1.841-1.315zm-160.367.264c.016-1.378-1.277-2.556-.525-4.206-.712-1.408-1.232-1.518-1.578-3.418-3.57-3.158-7.526-3.684-10.778-1.051-1.631,1.32-2.229,3.001-3.943,3.944-1.041,2.465-1.734,5.277-3.417,7.098-.831,4.408-1.328,9.267-.263,12.882 .222.755.803,1.369 1.051,2.103 1.117,3.3 2.156,7.825 3.418,10.517 .666,1.418 1.345,1.82 1.84,2.629 .87,1.416 1.107,3.201 1.841,4.468 .806,1.395 2.635,2.291 2.892,3.944 .61.704 1.805.824 2.103,1.84 1.98.905 3.625-.218 3.418-2.629-.123-1.432-1.999-2.056-1.578-3.155-1.564.581-1.59,1.831-2.892,1.578-2.564-.496-1.843-3.519-1.315-6.309-1.911-.469-4.769-2.052-3.681-5.522 1.066-.511 1.798-1.356 3.681-1.05 1.364,1.084 2.386,3.63 4.207,3.416-.291-1.991.301-3.624.526-4.732 .338-1.662.36-3.724.789-5.256 .476-1.703 1.588-3.129 1.84-4.732 .235-1.498-.23-7.001 1.315-5.784-.613-2.904 1.027-4.677 1.049-6.575zm286.556-7.361c.485-1.205-1.421-1.358-1.84-.788 .757.118.821.929 1.84.788zm-64.935,7.887c-2.156.248-4.046,1.153-6.31,1.577-.038,1.277-.985,1.643-1.052,2.893 .9-.302 2.276.281 2.893,0 .201-.092-.104-.515.263-.526 .261-.008.789.542 1.051.526 .029-.002.064-.493.265-.526 .627-.106 3.627-.02 3.681,0 .192.074-.099.521.261.526-.347-.005.556-.36.265-.263 1.481-.494 3.142.383 4.994.263 .013-.001.37-.481.526-.526 1.143-.327 2.49-.49 3.153-.788 1.678-.756 2.65-.587 2.629-2.629-3.797-1.102-9.822-.849-12.619-.527zm-115.936,3.155c1.271.219 1.771-.332 1.84-1.315-.653.041-.814-.413-1.314-.525-.205.584-.553,1.024-.526,1.84zm-74.663,2.891c-.16-1.066-.636-1.816-1.051-2.628-1.655.485-5.203-2.795-6.31.262 .26.946 1.005,1.474 1.577,1.841 .296.189.267.618.526.788 1.084.711 1.753.346 3.154.789 .464.147.66.664 1.052.79 .447.142 1.088-.137 1.577,0 .41.113.649.637 1.051.788 .385.145.918-.11 1.315,0 .055.015.182.485.263.525 .444.224 1.366.073 1.84.263 1.55.623 3,1.426 4.996.526-3.51-1.532-6.739-2.474-9.99-3.944zm129.608-2.366c1.474.328 4.148.543 5.257-.262-.891-.82-4.844-1.346-5.257.262zm-115.675,2.629c-2.52-1.4-6.678-2.896-9.727-2.629v1.841c2.709,1.291 4.905,2.206 7.624,2.366 1.777,2.126 4.573,3.871 8.676,2.891-1.508-1.955-5.265-1.733-6.573-4.469zm4.996,1.315c3.456,1.839 8.661,4.009 12.619,3.68-.146-.001-.298.214 0,.263 .126-1.101 2.612.159 2.629-1.052-2.637-.427-4.353-.356-6.31-2.103v-1.314c-3.324-.919-5.138-3.819-9.201-2.628-.66,1.164.388,1.776.263,3.154zm46.795-2.366c-.348-.003-.241-.461-.526-.526-.958.527-3.283-.526-4.995,0-.056-.317-.292-.162-.526,0-.204.058-.305.22-.262.526 2.016-.032 4.081,1.264 5.521,1.84 .976.39.831.658 1.577,1.051 .77.406 1.798.171 2.629.526 .069.029-.067.489 0,.525 .282.154 1.186.229 1.84.526 1.417.644 1.965,1.178 3.681,1.314 2.07.165 5.713.135 5.783-.526-4.184-1.426-8.778-4.892-14.722-5.256zm67.564.788c-.599.134-3.885-.794-4.995-1.051-.608-.14-1.667.146-2.366,0-.325-.068-.693-.492-1.051-.525-1.872-.174-5.218,1.498-6.31,1.052-.751-.308-.629-.951-1.313-1.052-.945-.14-1.649-.387-2.105.525 1.399,1.343 3.111,1.481 5.259,2.103 .632.183.774.245 1.053.263 .352.022.233.463.526.526 1.29.276 2.794-.288 3.941,0 .237.059.277.459.789.525 3.618.469 7.388.472 10.778-.788 .186-2.927-2.972-1.854-4.206-1.578zm-47.321,1.578c.014-.802-.947-.631-.788-1.578-4.321-.396-7.007-1.975-11.042-.525 1.594.772 2.841,1.891 4.996,2.103 .783,1.842 3.249,1.236 4.469,1.577 .309.086.854.868 1.314,1.052 .367.147.963-.177 1.314,0 1.963.991 3.603,1.41 5.784,2.103 .416-.985 2.683-.121 2.891-1.314-2.389-1.089-5.319-3.371-8.938-3.418zm31.02.788c-.381-.369-1.228-1.259-2.101-1.578-.742-.27-1.549-.045-2.105-.525-1.391-1.206-2.823-.615-4.467-1.578-.255.536-1.01.568-1.841.526-1.418-1.309-3.462.223-5.784,0-.175,1.139 1.221.708 2.103.788 .915,1.54 4.024.884 4.733,2.629 4.896.036 8.455,3.011 12.881.525-1.367-.401-1.63-.588-3.419-.787zm-18.664-.788c.181-.707-.543-.508-.789-.79-1.124.512-2.295-.5-3.681-.789-.572-.119-1.481.106-2.103,0-.135-.022-.684-.542-.525-.525-.745-.082-2.27-.306-2.629.525 .884.343 1.571.883 2.892.789 .334.804 1.506.773 1.841,1.578 1.138-.086 1.741.363 2.103,1.052 1.227.438 2.941.389 3.418,1.578 3.36.158 3.393.173 5.521.525 .43-1.059 2.931-.049 2.892-1.577-3.97-.99-4.924-2.317-8.94-2.366zm84.389-.526c1.33-.27 2.602.286 3.682.263 1.464-.03 3.062-.131 3.417-1.315-1.308-.012-5.856-.456-7.099,1.052zm-116.988,2.629c-2.201-2.653-6.104-1.782-9.464-3.681-1.928-.204-3.77.361-5.521.526-2.13.201-4.033-.286-5.521.789 8.17,1.004 14.758,5.13 22.872,3.417-.529-1.022-.986-.704-2.366-1.051zm-29.181-.526c1.288.312 2.728,1.154 4.206,1.578 .689.197 1.464.51 1.577.525 .292.04.427-.437.79-.262 .202.097-.08.459.262.525 1.211.234 2.913.073 3.944.263 1.102.203 2.217.803 3.154,0 1.245.194 1.808-.295 2.892-.263-.874-1.403-3.009-1.547-5.258-1.577-.217-.497-1.428-.542-2.103-.526-2.276.053-4.24.155-6.047-1.84-.691-.555-5.674-.89-7.098-1.315-1.096,2.318 2.085,2.506 3.681,2.892zm101.741.263h1.313v-.525c-.264.001-.312-.214-.526-.263-.028.496-.869.181-.787.788zm43.377-.263c-3.239,5.524-4.36,13.166-8.149,18.141-2.079.55-3.414,1.846-5.259,2.629 .58,2.136 1.731,3.701 2.893,5.259 3.706-.526 9.551.62 11.042-2.632 2.972-.62 5.286-4.176 7.886-6.046-.002-1.666.83-2.499 1.316-3.68-.266-2.828 2.062-5.281 1.313-9.465-.991-.375-.984-3.647-2.104-4.731-1.631.853-6.505.368-8.938.525zm-46.796,27.079c-.002.884.342.162.789,0 1.475-.535 4.486-.809 7.099-1.051 1.123-1.119 2.312-2.182 3.417-3.157 .933-.82 1.849-1.843 2.629-3.941 1.038-2.783 1.333-5.599 1.577-8.938-.205-.06-.304-.223-.261-.526-3.609-1.572-5.349-4.79-7.625-7.099-3.839.15-6.044-.686-7.625-1.577-2.542,1.313-3.438.751-7.36.262-.331,3.063-.723,5.75-1.313,8.413-.849,3.814-.286,6.008 0,9.991-2.377,1.953-1.069,6.346-1.315,8.937 2.126-1.104 7.468.104 9.988-1.314zm-41.274-9.729c1.514-3.757 6.085-2.823 9.728-3.68 .972.954 3.79.064 4.73,1.053 .864-1.506 5.105.323 5.785-1.053 .476.905.486.064.788,0 .34-.072.25.539.525.526 .018-.002.075-.492.266-.526 .6-.106 2.007.021 2.101,0 1.155-.244 2.091-.349 3.681-.263 .417-.674 1.168-.447 2.631-.524 .736-1.543 1.065-3.491 1.051-5.785-.554-.849-1.326-1.477-1.84-2.366 .631-.819.182-2.799-.79-2.892-2.101.766-6.199,1.337-8.675.789-.394-.088-.67-.503-1.051-.526-2.396-.143-4.696,1.127-7.362,1.841-3.738.263-5.625-.593-7.887-.789-1.832,1.674-2.143,4.868-4.732,5.784 .078,3.609-1.319,6.342.526,8.676 .247-1.113.393-.624.525-.265zm-76.24-13.932c-.776-.059-1.582-.423-1.84-.525-2.963-1.186-5.187.349-7.362.262-1.727-.067-3.187-.85-4.995-1.314-1.227.438-2.144,1.187-2.892,2.103-.556,1.353-.543,2.434 0,3.68 1.401.877 3.178,1.379 3.943,2.894 2.014.306 3.657,1.358 5.784,1.574 1.453.15 2.942-.218 4.469,0 1.002.146 2.603,1.123 3.943.792 .298-3.295.78-6.408 1.314-9.466-.959-.043-1.587.059-2.364,0zm23.135,11.04c-.594-4.082 1.985-8.356 0-11.303-1.47-.629-3.327-.725-4.206.526-1.74-.542-3.306.546-4.996.525-2.231-.025-3.635-1.084-6.309-.788-.883,1.659-2.84,2.242-3.155,4.469-.849.607-1.375-.094-1.578,1.051-.816,5.023.026,10.663 1.051,14.724 3.118,1.331 5.191,4.856 9.202,5.52 2.36.39 4.77-.019 7.361.788 1.152-1.092 2.362-1.739 3.681-3.154-.055-2.67-.323-5.015 0-6.835-1.766-.753-3.888-2.032-2.892-4.732 .549.471 1.622-.128 1.841-.791zm15.775-11.829c-.367.335-.115,1.288-.79,1.314-3.217.303-6.191,1.022-9.201.789-1.289,1.165-2.158,2.75-3.418,3.943 .215,2.428-.473,3.592 0,5.259 1.453-.584 3.052-.343 4.206-1.051 3.08,1.748 9.378.798 12.619,2.101-.038-.941.675.028 1.315-.526 1.448.715 3.081.986 4.996.79-.408-3.706.632-7.136 1.051-11.304-3.307.308-8.1-.981-10.778-1.315zm28.129,0c-.829.039-.281.325-1.052.525-2.944.768-5.782.039-7.887,1.051-1.018-1.407-2.308-.198-3.155-.788-1.481,1.235-2.49,2.944-3.943,4.206-.151,1.893-.67,4.019-.79,6.311-.121,2.334-.29,8.416.526,10.778 .706,2.045 3.094,2.394 3.943,3.943 6.958.733 12.724,1.463 19.717,1.578-.507-3.816.989-7.522.263-10.778-.249-1.112-1.317-1.955-1.578-2.893-.215-.774.448-2.698.526-3.945 .163-2.593-.271-5.275.263-7.886-2.164-.017-4.042-2.232-6.833-2.102zm64.935,18.927c-.755,1.832-.785,3.83-2.103,4.996 .186,2.289-.152,4.055-1.579,4.732-.351,4.028-1.196,7.567-2.366,10.778 5.888-2.176 13.072.708 17.616-2.103 .678-.46.021-2.258 1.577-1.84 1.531-4.271 3.741-9.202 3.416-14.459 .867-.823 1.237-3.647.526-4.472-1.962-.372-4.093-2.924-6.309-3.942-.494-.227-1.034-.174-1.577-.264-1.545-1.696-4.078-2.406-6.046-3.68-.056.316-.293.163-.526,0 .014,4.294-1.567,7.683-2.629,10.254zm-135.655-7.885c-3.4.345-5.224.013-8.149,0-.334-.002-.673-.514-1.052-.526-1.282-.047-2.425.803-3.417,1.84 .601,1.771 2.603,1.329 4.732,1.579 1.372.158 2.658.965 3.417,1.051 3.097.351 6.404-.088 8.938-.264 .522-.965.653-1.42 0-2.366-1.274-.003-3.387.205-4.469-1.314zm107.524,1.313c-.116-.119-.424.51-.524.526-.657.107-1.773-.248-2.893,0-.499.111-.803.478-1.313.526-2.24.212-4.838-.286-6.049.526-.821-1.029-1.844.76-2.627-.526-.06.203-.009.518-.263.526-.791-1.074-1.93-.104-2.893-.266-.657-.106-.947-.528-1.577-.523-.698.004-.519.404-1.052.523-.887.206-2.631-.235-3.681,0-2.285.514-3.733,1.969-3.943,3.945 4.403.415 10.425,1.556 15.511,1.053 .331-.034.791-.481 1.05-.526 .916-.162 1.78.077 2.63,0 1.13-.104 2.176-.635 3.155-.789 2.49-.392 4.874.094 7.36-1.051 .029-.32.079-.625.525-.526 .291-1.955-.958-2.375-1.576-3.419-.914-.046-1.171.69-1.84.001zm-69.141.79c-.614.087-1.085.314-1.577.523-.136-.915-1.718-.385-2.629-.523-.614-1.322-1.965-.229-2.892,0-1.266.314-3.071.237-3.681,1.315 1.219,1.549 3.026.941 4.732,1.313 .904.197 1.734,1.065 2.629,1.313 1.071.298 1.385-.141 1.84-.261 .606-.162 2.465.327 2.892.261 .059-.203.007-.518.263-.526 1.679.048 3.245.339 4.732,0 .052-.011.08-.464.262-.526 .197-.063 1.387.104 1.578,0 .209-.11-.096-.471.263-.523 1.089-.161 2.771.886 3.418-.79-5.853-1.076-7.858-.444-11.83-1.576zm-94.642.263v1.577c.842.385 1.46.992 2.892.789-.606-1.362-.996-2.978-2.892-2.366zm57.311,3.679c-.769.068-.808-.595-1.577-.526-.798.758-3.163.698-4.469,0-6.849,2.236-4.389,12.283-2.103,17.878 3.272,1.985 7.079,3.436 9.464,6.312 3.587.552 4.587-.542 8.15.261-.102-2.966-1.397-4.737-1.051-8.149-.851-1.427-2.564-1.992-2.629-4.206 .334-.216 1.542-.826 1.578-2.104-2.469-2.088-2.45-6.664-3.681-9.991-1.309-.014-2.626.286-3.682.525zm49.163.79c-4.203-.518-9.343,1.684-16.038,1.05-.946-.068-1.63-1.33-2.366-.787-1.284,1.778-2.048,5.691-1.051,8.149-2.271,4.221 1.363,8.363 2.103,12.095 2.024,1.041 2.677,3.455 4.732,4.467 .203.674.262,1.491.788,1.84 .08-.821 1.416-.038 1.578,0 2.352.586 3.895.644 5.784,1.053 1.297-.869 5.917.203 8.413-.787 1.893-1.843-.603-5.839.788-8.413-.084-.335-.44-.859-.525-1.842 .298-.577.879-.873 1.051-1.576-2.727-1.365-1.144-3.604-1.314-6.047-.073-1.039-.796-1.887-1.052-2.893-.67-2.64-.523-5.259-1.051-7.625-.465.589-1.48.625-1.84,1.316zm-101.479,1.84c.058-.206.22-.306.526-.264 .039-.65.049-1.274-.526-1.313 .286.672-.798,1.254 0,1.577zm135.392.525c-1.014,2.169-3.175,3.863-3.944,5.785-.087.218-.485.171-.525.263-.549,1.256-.389,4.138 0,5.783 .088.372.626.859.789,1.313 1.055,2.959.66,6.824.788,10.518 3.479-.982 5.215-.544 10.517-.526 .806-1.049 4.655-.052 4.993-1.053 2.563.787 6.145.017 9.204-1.051 .03-.32.077-.622.524-.523 1.474-6.851 3.604-14.896.263-21.033-8.4-.132-13.086,1.777-22.609.524zm81.234,4.732c-3.762.451-9.786-.359-11.566,1.053 .188.804-.453.774-.266,1.578 .206.056.309.219.266.524 1.759.721 5.176.165 7.623-.524 .832-.045.879.697 1.84.524 .451-.478 2.188-.708 2.893-.524 .311.077.255.483.524.524-.082-.011.149-.507.265-.524 .343-.056.246.55.526.524-.049.004.233-.458.524-.524 .665-.156 1.57.026 2.366-.265 .717-.683 1.94-.86 2.63-1.577 .428-.933.346-2.512-.264-3.155-2.629-.24-4.461,2.019-7.361,2.366zm-51.266,5.522c3.696.194 9.152.208 12.357-.789 1.198-.373 1.901-1.697 3.153-1.314 .731-1.303 2.593-1.596 1.84-3.68-.359.011-.575-.124-.787-.263-2.405,1.256-3.312,1.341-7.36,1.577-2.935,1.407-6.521.766-10.517,1.313-.395.056-.734.862-1.314.265-.132.83-.774,1.153-.789,2.102 1.051.115 2.245.726 3.417.789zm-97.533-2.367c-.859-.212-2.327.015-3.418,0-1.166-.017-2.51.032-3.68.526v1.577c2.728,2.302 8.512.928 11.567,1.84 1.686.505 2.883-.51 3.681-.526 .062,0-.001.537.263.526 .1-.005-.035-.548.262-.526 .38.029.438.479.79.526 .013.002.312-.553.525-.526 .112.017.242.597.526.526 .111-.026.007-.467.262-.526 .563-.124 1.021.273.79-.787-1.057-.469-2.48.57-2.893-.788-.059.201-.006.519-.262.524 .128-2.086-3.463-1.098-5.521-1.577-.923-.214-1.542-.945-2.103,0 .077-.679-.616-.746-.789-.789zm43.64,0c-1.822.104-4.279-.424-4.995.789-.061,1.198.442,1.836.789,2.628 3.387.764 6.162.312 9.727,0 4.707-.411 10.387,1.014 12.356-1.575-3.59-1.138-11.147-.146-16.299-1.842-.307.165-.687.135-1.052.789-.024-.415.036-.911-.526-.789zm102.792,1.578c-1.294-.276-2.273.365-3.68.526-3.448.394-4.312.299-6.572-.262-1.155,1.868-1.455,3.638-2.629,6.046-.704,1.447-1.892,2.912-2.104,3.941-.357,1.75.687,3.376-.787,4.732-.633.582-1.54.475-2.632,1.053-.642,1.985-.999,4.258-1.574,6.309 2.028-.471 2.986,1.265 4.206.264-.032.509.257.564.787.526 1.622-.118 3.265-1.626 4.996-1.053 1.443-1.106 2.518-1.333 3.942-1.313 .51-1.151 2.461-1.234 2.893-1.579 1.092-.868 2.105-3.155 2.893-4.206 .95-1.267 1.981-2.071 2.102-3.94 .804-.163 1.059-.873 1.578-1.316 .009-2.361.253-4.052 0-7.361-1.018-.47-2.48-2.166-3.419-2.367zm-37.855,15.25c.588.316.194.066.526-.266 1.253-1.254 2.201-3.451 2.101-6.046 1.775-.965 1.463-5.34 1.053-7.623-.058-.205-.221-.306-.526-.263-4.495,2.625-9.668.601-15.772,1.576-2.413,2.848-4.14,6.378-5.259,10.516 .283.683.95.978 1.053,1.84-1.878,4.521-2.097,10.701-4.208,14.984 1.923.518 3.245-.678 4.469,0 .101-.385.352-.462.79-.523 2.544-.357 5.791-.212 8.937-1.051 2.749-3.971 5.403-7.424 6.836-13.144zm-60.467-11.305c-1.366,1.249-2.878.376-4.469.261-1.575.879-3.099,1.81-3.943,3.419-.629,5.622.958,9.032 3.943,11.041 2.464-.074 5.026,1.898 7.887,2.63 1.286.327 2.61.171 3.681.526 1.607.528 2.595,1.626 3.681,1.313 .688,1.326 2.216,1.814 3.68,2.366 .541-2.285.385-2.807.263-5.259 .28-1.033 1.294-1.335 1.052-2.893 .076-1.128-1.239-.864-1.315-1.84 .063-3.697.641-7.127-.788-9.726-5.151-2.968-7.647-1.728-13.672-1.838zm-29.97,8.938c-3.111-1.536-4.013-5.278-5.258-8.678-1.966.056-2.62.128-3.156.526v-.526c-.969.437-1.498-.274-2.103.526-.346-.002-.239-.46-.525-.526-.849,1.33-2.388-.182-2.893-.261-1.746-.278-4.521.391-6.572,0-1.304.534-1.666,2.013-2.628,2.892 .28,1.47.804,2.7 1.051,4.207 1.108.579 2.297,1.065 3.155,1.313 .332.094.799-.09 1.051,0 .053.017-.052.509 0,.526 .446.135 1.145-.101 1.578,0 .54.124.986.647 1.577.787 1.454.342 1.864-.185 2.366.789 3.295,1.115 5.695,3.524 9.202,3.68-.299.576-.679,1.074-.526,2.104 2.59.239 4.065,3.252 2.366,5.52 1.651,1.682 3.517,3.146 5.258,4.732 .351.923.684,2.088 1.84,2.632-.132-.064.446-.518.526-.526-.147.017.83.227 1.052.261 1.809.287 4.823,1.358 5.784-.261-.391-.751-1.303-.976-1.578-1.84 .103-1.391 1.036-1.947 1.315-3.155-.231-.691-.683-.702-1.052-1.051-1.126-1.07-1.504-3.115-2.629-3.683-.363-.182-1.299.298-1.84.264-2.597-.158-5.758-.736-7.624-1.84-.123-.982-.664-1.545-1.052-1.579-.506-3.647 1.58-2.772 1.315-6.833zm99.637-2.105c-2.142.257-5.169-.163-5.52,3.419 3.342.96 7.83-.526 10.778,1.053 .242-.916.681-.135 1.313-.79 .03.929.483-.027.79.79 .201-.98 2.149-.762 2.89-1.053 .762-.3.993-1.248 1.579-.787-.149-.465.316-1.545-.263-1.579-.084.423-.375-.021-.264-.526-1.883.038-5.015-1.186-6.572,0-.654-1.047-3.376-.101-4.467-1.053-.056.222-.011.496-.264.526zm-131.71,2.366c-2.574-.052-6.355.642-10.778,1.053 .277.699.494,2.02-.263,2.366-1.603.214-1.086-1.284-1.315-1.84-1.017-.146-1.907.672-3.154,1.05-.786.24-2.287-.117-2.892,1.051 .39.488 1.358.396 1.315,1.315-.523.003-.335.717-1.052.526-1.043-.011-1.089-1.016-1.578-1.576-2.032,1.296-4.688,1.973-6.31,3.68 1.002.137 1.34.937 1.315,2.103-1.193.81-2.243-.811-2.629-1.576-2.977,2.19-6.011,4.33-7.624,7.886-.375-.103-.444-.316-.788,0-1.549,2.278-3.82,7.262-3.681,11.042 .121,3.279 2.667,5.552 3.417,8.149 2.989,1.535 5.022,5.243 9.202,4.732-.084-.616-.416-.986-.263-1.84 .517.079.521-.355.788-.526 .385.491 1.442.31 1.315,1.313-.078.537-.526.701-.789,1.053 .498,1.6 3.622.778 4.731,1.052 .153-.854-.179-1.224-.263-1.84 .811.197.321-.907 1.315-.526 .39.223.566.661.526,1.314 1.572-.02 2.108-.15 2.366-1.84-.083-.619-1.247-.156-1.052-1.053 .518-1.847 2.111-2.619 2.365-4.732-.698-.792-1.676-1.301-2.103-2.366 .908-1.721 1.673-3.584 2.103-5.781 2.157-.738 2.028-3.757 4.207-4.472-.036-1.438 1.457-1.348 1.577-2.627 1.105-.65 2.737-.771 2.629-2.629-.086-.617-1.147-.255-1.315-.79v-1.313c1.526-.39 1.753.526 2.629.787 1.599-1.793 3.999-1.527 6.046-1.576-.304.006 1.036-.39.789-.264 1.054-.539.703-1.646 1.841-2.104 1.116-.723 2.99-.688 4.469-1.05-.015-.862-.748-1.006-.526-2.105 1.43-.058 1.41-1.568 2.629-1.84 2.814.62 4.351-.231 6.309-.787-.035-.648-.04-1.267.263-1.579-1.445-.233-1.13-.607-2.893-.524-.117.672-.368,1.209-.789,1.577h-1.314c-.575-.918-.392-1.399-.263-2.627-2.749-.035-2.607-.231-5.783-.526 .159.629.378,1.197.262,2.101-.332.304-2.072.53-2.365,0 .011-.359-.124-.578-.263-.787 .455-1.134 1.662-.668 2.104-1.313-1.789-.174-3.101.286-4.467.259zm99.637,1.579c-2.779.248-6.331-.291-9.727.526-.453.106-.585.475-1.052.523-1.417.152-3.47-.053-5.258,0-1.444.043-3.659-.528-3.944,1.316 1.964,1.6 6.083,1.019 9.99,1.05 2.628.024 5.272-.017 7.887,0 1.528-1.362 6.078.296 5.785-2.89-.842-1.362-2.601-.623-3.681-.525zm-81.498,1.576c.046.769 2.201.931 2.104.264-.655.04-.814-.413-1.315-.526-.147.548-.41.555-.789.262zm23.135,1.84c-.226-.07.024-.451-.525-.523-2.824-.377-4.543-.469-7.36-1.053-2.612,5.173 7.009,4.15 9.2,3.942 .64-1.639 3.479-1.078 4.207-2.629-1.48-.968-3.708.827-5.522.263zm87.019-1.315c-1.752.214-3.564,1.006-5.256,2.105-1.359,2.936-2.835,5.755-4.207,8.676-.631.186-1.071.019-1.052,1.313 .811.768 1.553,1.603 1.84,2.893 3.23.584 8.001,1.29 11.565,0 .552-1.277 2.395-1.761 3.682-2.893 2.916-2.557 5.807-8.325 2.891-12.095-1.964-.226-6.106-.405-9.463.001zm-102.004,3.681c-3.225-.65-7.212-2.479-12.618-1.576-1.677.278-3.008,1.373-4.732,1.313 .029,1.286 1.369,1.26 1.314,2.629-2.628.621-4.07,1.09-6.572,1.051-.843.648-.958,2.024-2.103,2.366-2.937-.306-4.754.505-6.572,1.316-.496,1.08-1.312,1.842-1.578,3.155-4.766,2.332-7.289,6.906-9.202,12.092 .312.565 1.139.612 1.578,1.053 .993,2.679-1.016,4.335-1.578,6.308 .971,1.219 2.522,1.861 2.629,3.944 1.746,1.094 3.282,2.938 5.258,3.154 .893.098 3.535-1.267 5.257-1.84 4.412,1.193 11.536.947 14.986,0 .374-.81.118-1.182-.263-1.841 1.304-1.005 2.207-2.113 4.207-2.365 1.517-.193 3.32.603 4.996,0 1.17-1.947 4.295-1.999 5.521-4.47 .208-1.085-.117-1.637-.79-1.84 .365-.426.543-1.036 1.052-1.315 .655-.039.814.414 1.314.525 .815-1.01 2.138-.731 3.155-1.313 1.687-.967 2.613-2.935 3.944-4.206 .026-1.707.394-2.618.262-3.68-.083-.683-.589-2.424-1.051-3.155-.121-.19-.885-.343-1.313-.79-.4-.415-.525-1.082-.79-1.313-1.121-.988-2.488-1.527-3.155-2.366-1.019-1.279-.2-2.321 0-3.945-.624-1.391-3.094-.936-3.156-2.891zm71.245-.262c-1.143-.329-4.544.081-7.36,0-3.226-.094-6.135-.963-7.887.263-.711.499-3.177,5.203-3.155,5.783 .021.552 2.188,3.526 2.366,3.68 .04.037.841-.04 1.314.266 .339.218.488.877.789,1.051 .485.28 1.365.229 1.84.526 .816.511 1.372,1.369 2.103,1.84 .894.575 2.138,1.208 2.629,1.315 2.692.573 4.708-.433 6.047-.789 .801-.217 1.69.098 2.102-.526 .902-3.656 3.277-5.837 3.155-10.516-1.416-.791-2.235-2.399-3.943-2.893zm-24.975,37.331c1.346-.67 3.074-.956 3.943-2.103 .991.2 1.257-.321 2.103-.264 2.707-3.69 5.875-3.194 7.099-8.412-.068-.807-.57-1.184-.788-1.84 1.341-1.786.073-3.695-.263-5.257-.26-1.207-.066-2.553-.526-3.682-.023-.061-.695-.366-.789-.526-.607-1.038-.524-1.316-1.051-2.104-.833-1.24-2.057-2.071-2.366-3.419-4.831-2.445-8.746-6.352-15.774-7.097-.071-1.026-1.814-.523-2.628-.789-.564-.184-1.08-.691-1.578-.787-3.302-.642-6.772-.312-9.99-1.053-1.026.464-1.667,1.312-3.417,1.053-.432,1.057-1.615,1.365-2.629,1.84 .959,1.757 2.636,2.798 3.155,4.993-2.311,1.401.05,3.586.788,4.998-1.364,1.153-2.653,3.265-4.206,3.414-.465,1.019-.246,2.615 0,3.683 1.872.056 1.883,1.973 3.155,2.629-.477.58-1.272,1.218-1.577,1.577-.972,1.145-.403,2.381-.263,3.417 .352,2.602-1.325,3.889-2.367,6.048 2.133,2.073 4.632,3.78 7.361,5.257 .324-.815 1.575-.704 2.104-1.313 .622.342.506,1.42.788,2.103 1.069-.13 3.148.266 3.68-1.05 .35.611 1.174.753 1.841,1.05 1.891-.442 5.439-.156 9.201-1.05 .051-1.017-1.221-.709-1.051-1.841 .393-.31.31-1.093 1.051-1.052 1.159.505 1.077,1.574.526,2.627 .982-.021.749-.293 1.577,0 .769-.424-.418-1.354.263-1.575 1.067-.579 1.262.324 2.628.525zm82.024-35.491c-1.354,1.369-3.729,1.245-5.257,1.579-.967.21-1.782.924-2.632,1.051-1.865.277-4.086.079-6.046-.524-.32.815-1.222,1.055-1.051,2.366 3.034,1.42 8.196-.171 11.042.261 1.504-1.474 4.285-1.673 4.468-4.47-.056-.204-.219-.306-.524-.263zm-9.203,9.728c1.609.712 5.28.365 6.046-2.366-1.963-1.15-6.216-1.344-6.046,2.366zm-7.359,2.103c2.695.672 5.847-1.322 6.046-4.732-4.086-.493-5.21,1.976-6.046,4.732zm-26.555-3.154c-.352.261-.514.71-1.051.787-.55-.06-1.401-.368-2.366-.263-1.141.121-4.452,1.067-4.73,1.05-.12-.004.058-.595-.265-.523 .072-.016-.35.446-.526.523-.6.27-1.678.325-2.102.792 .19.802-.453.772-.263,1.574 4.084,1.331 7.246-1.042 10.252,0 1.851-1.134 6.072-.063 7.099-1.313 .058-.203.007-.518.264-.526 .153-.941-.307-1.271-.526-1.84-1.366-.455-3.342-.278-5.786-.261zm21.559,1.314c-.387,2.066-2.413,2.494-3.155,4.206 .487.212 1.062.338 1.313.787 2.21-.776 5.62-2.142 4.732-6.046-.334-.013-.363-.338-.787-.261-.294.843-1.018,1.258-2.103,1.314zm-11.305,5.783c3.036-.03 5.758-.377 6.046-3.156-2.237-.41-1.932.3-4.469-.261-.806.858-1.065,2.264-1.577,3.417zm-1.315-1.316c.685-1.959-.848-1.495-2.101-1.84-.81.685-1.571,1.41-2.893,1.579-.167,1.243-2.816,1.382-1.841,2.893 .878,0 1.049-.261 2.102.261 1.041-1.228 3.344-1.352 4.733-2.893zm-82.549.526c.439,1.425 1.915.918 3.418.79 .422-.629.865-1.239.79-2.366-.791-.696-3.948-.888-4.208,1.576zm60.466-1.314c-1.336.869-4.686.783-3.681,3.153 2.51.762 7.024,1.07 7.362-1.84-1.284-.38-2.997-.328-3.681-1.313zm5.784,2.893c1.019,2.91 3.39.916 5.259,1.053-.085-1.283 2.355-.528 1.84-2.893-.906-.691-2.314-.353-3.418-.526-.756,1.369-2.23,1.284-3.681,2.366zm-17.614-1.579c-.318.056-.162.294 0,.526 .52,2.217 6.309,1.75 6.309-.526-1.338.009-5.312-.235-6.309,0z" fill-rule="evenodd"/>
 <path d="m120.408,7.115c.604-.83 1.428-1.191 2.629-.788 .305,1.356-.556,1.546-1.051,2.103-.745.192-1.006-1.416-1.315-.789-.412-.093.23-.463-.263-.526z" fill-rule="evenodd"/>
 <path d="m123.299,10.533c.501.027-.209.98-.262,1.314h-1.578c.074-.424-.249-.452-.263-.788-.182-1.058 1.107-.646 1.051-1.578 1.351-.242.612,1.579 1.052,1.052z" fill-rule="evenodd"/>
 <path d="m161.42,39.977c.526.212-.471,1.083-.526,1.578-.351-.438-1.489-.088-1.84-.526 .043-.305-.059-.467-.263-.525-.001-.702.831-.571.789-1.314 1.275-.559 1.491,1.288 1.84.787z" fill-rule="evenodd"/>
 <path d="m58.365,43.921c-.246.192-.399.478-.526.788-.234-.161-.47-.317-.525,0-.268-.171-.273-.604-.79-.526-.026-.815.322-1.256.526-1.84 1.334-.282 1.092,1.011 1.577,1.578-.049.299-.263.146-.262,0z" fill-rule="evenodd"/>
 <path d="m195.858,54.963c.043-.306-.058-.468-.263-.526 .021-.855.338-1.417 1.053-1.578 .299.578.678,1.075.526,2.104h1.574c.742,1.18-.44,1.301-.787,2.103-.913-.825-.525-2.547-2.103-2.103z" fill-rule="evenodd"/>
 <path d="m118.305,57.854c-.559.947-1.087.673-2.103.526-.164-1.019-.218-1.083.263-1.841h1.577c-.565,1.967 1.915.89 2.366,1.841 .139,1.189-.387,1.716-1.578,1.577-.232-.644-.788-.964-.525-2.103z" fill-rule="evenodd"/>
 <path d="m97.01,64.164c-.386.986-2.638.266-2.628.263-.95-1.348 2.23-2.954 2.628-.263z" fill-rule="evenodd"/>
 <path d="m132.501,64.164c.89-.184-.631,1.125-.526,1.841-.5-.493-.66-.029-1.313,0-1.02-1.631 1.067-3.289 1.577-1.315 .255-.007.203-.322.262-.526z" fill-rule="evenodd"/>
 <path d="m54.158,128.837c.05-.3.264-.146.263,0 .154-.668 1.626-.711 2.103-.266 .318,1.108-.425,1.155-.525,1.842-.832.043-.879-.699-1.841-.526-.361-.598.678-.988 0-1.05z" fill-rule="evenodd"/>
 <path d="m149.063,145.662c-.525.266-.415,1.164-1.314,1.053 .235-.85-.858-.37-1.052-.789-.21-.914.392-1.013.263-1.843 .982.026.749.296 1.577,0 .262.528.514,1.065.79,1.579-.051.299-.265.145-.264,0z" fill-rule="evenodd"/>
</svg>
